<?xml version="1.0" encoding="UTF-8" standalone="no"?>
<!DOCTYPE svg PUBLIC "-//W3C//DTD SVG 1.1//EN"
 "http://www.w3.org/Graphics/SVG/1.1/DTD/svg11.dtd">
<!-- Generated by graphviz version 2.40.1 (20161225.0304)
 -->
<!-- Title: oneDegreeRelationshipsDiagram Pages: 1 -->
<svg width="841pt" height="492pt"
 viewBox="0.00 0.00 841.00 492.47" xmlns="http://www.w3.org/2000/svg" xmlns:xlink="http://www.w3.org/1999/xlink">
<g id="graph0" class="graph" transform="scale(1 1) rotate(0) translate(4 488.4747)">
<title>oneDegreeRelationshipsDiagram</title>
<polygon fill="#ffffff" stroke="transparent" points="-4,4 -4,-488.4747 837,-488.4747 837,4 -4,4"/>
<text text-anchor="middle" x="72.4936" y="-7.3" font-family="Helvetica,sans-Serif" font-size="11.00" fill="#000000">Generated by SchemaSpy</text>
<!-- actions -->
<g id="node1" class="node">
<title>actions</title>
<g id="a_node1"><a xlink:href="../../tables/actions.html" xlink:title="actions" target="_top">
<polygon fill="#ffffff" stroke="transparent" points="216,-97.9747 216,-385.9747 456,-385.9747 456,-97.9747 216,-97.9747"/>
<polygon fill="#f5f5f5" stroke="transparent" points="218,-360.9747 218,-383.9747 454,-383.9747 454,-360.9747 218,-360.9747"/>
<polygon fill="none" stroke="#000000" points="218,-360.9747 218,-383.9747 454,-383.9747 454,-360.9747 218,-360.9747"/>
<text text-anchor="start" x="223" y="-369.5747" font-family="Helvetica,sans-Serif" font-weight="bold" font-size="11.00" fill="#000000">actions</text>
<text text-anchor="start" x="419.0437" y="-369.0747" font-family="Helvetica,sans-Serif" font-size="11.00" fill="#000000">[table]</text>
<polygon fill="none" stroke="#000000" points="218,-338.9747 218,-360.9747 360,-360.9747 360,-338.9747 218,-338.9747"/>
<image xlink:href="../../images/primaryKeys.png" width="11px" height="12px" preserveAspectRatio="xMinYMin meet" x="223" y="-355.975"/>
<text text-anchor="start" x="238" y="-346.0747" font-family="Helvetica,sans-Serif" font-size="11.00" fill="#000000">id</text>
<polygon fill="none" stroke="#000000" points="360,-338.9747 360,-360.9747 454,-360.9747 454,-338.9747 360,-338.9747"/>
<text text-anchor="start" x="362.9758" y="-346.6747" font-family="Helvetica,sans-Serif" font-size="11.00" fill="#000000">uuid[2147483647]</text>
<polygon fill="#ffffff" stroke="transparent" points="218,-316.9747 218,-338.9747 360,-338.9747 360,-316.9747 218,-316.9747"/>
<polygon fill="none" stroke="#000000" points="218,-316.9747 218,-338.9747 360,-338.9747 360,-316.9747 218,-316.9747"/>
<image xlink:href="../../images/foreignKeys.png" width="11px" height="12px" preserveAspectRatio="xMinYMin meet" x="223" y="-333.975"/>
<text text-anchor="start" x="238" y="-324.0747" font-family="Helvetica,sans-Serif" font-size="11.00" fill="#000000">tenant_id</text>
<polygon fill="none" stroke="#000000" points="360,-316.9747 360,-338.9747 454,-338.9747 454,-316.9747 360,-316.9747"/>
<text text-anchor="start" x="362.9758" y="-324.6747" font-family="Helvetica,sans-Serif" font-size="11.00" fill="#000000">uuid[2147483647]</text>
<polygon fill="#ffffff" stroke="transparent" points="218,-294.9747 218,-316.9747 360,-316.9747 360,-294.9747 218,-294.9747"/>
<polygon fill="none" stroke="#000000" points="218,-294.9747 218,-316.9747 360,-316.9747 360,-294.9747 218,-294.9747"/>
<text text-anchor="start" x="238" y="-302.0747" font-family="Helvetica,sans-Serif" font-size="11.00" fill="#000000">name</text>
<polygon fill="none" stroke="#000000" points="360,-294.9747 360,-316.9747 454,-316.9747 454,-294.9747 360,-294.9747"/>
<text text-anchor="start" x="363" y="-302.6747" font-family="Helvetica,sans-Serif" font-size="11.00" fill="#000000">varchar[100]</text>
<polygon fill="none" stroke="#000000" points="218,-272.9747 218,-294.9747 360,-294.9747 360,-272.9747 218,-272.9747"/>
<text text-anchor="start" x="238" y="-280.0747" font-family="Helvetica,sans-Serif" font-size="11.00" fill="#000000">display_name</text>
<polygon fill="none" stroke="#000000" points="360,-272.9747 360,-294.9747 454,-294.9747 454,-272.9747 360,-272.9747"/>
<text text-anchor="start" x="363" y="-280.6747" font-family="Helvetica,sans-Serif" font-size="11.00" fill="#000000">varchar[150]</text>
<polygon fill="none" stroke="#000000" points="218,-250.9747 218,-272.9747 360,-272.9747 360,-250.9747 218,-250.9747"/>
<text text-anchor="start" x="238" y="-258.0747" font-family="Helvetica,sans-Serif" font-size="11.00" fill="#000000">description</text>
<polygon fill="none" stroke="#000000" points="360,-250.9747 360,-272.9747 454,-272.9747 454,-250.9747 360,-250.9747"/>
<text text-anchor="start" x="363" y="-258.6747" font-family="Helvetica,sans-Serif" font-size="11.00" fill="#000000">text[2147483647]</text>
<polygon fill="none" stroke="#000000" points="218,-228.9747 218,-250.9747 360,-250.9747 360,-228.9747 218,-228.9747"/>
<text text-anchor="start" x="238" y="-236.0747" font-family="Helvetica,sans-Serif" font-size="11.00" fill="#000000">action_type</text>
<polygon fill="none" stroke="#000000" points="360,-228.9747 360,-250.9747 454,-250.9747 454,-228.9747 360,-228.9747"/>
<text text-anchor="start" x="363" y="-236.6747" font-family="Helvetica,sans-Serif" font-size="11.00" fill="#000000">varchar[50]</text>
<polygon fill="none" stroke="#000000" points="218,-206.9747 218,-228.9747 360,-228.9747 360,-206.9747 218,-206.9747"/>
<text text-anchor="start" x="238" y="-214.0747" font-family="Helvetica,sans-Serif" font-size="11.00" fill="#000000">action_category</text>
<polygon fill="none" stroke="#000000" points="360,-206.9747 360,-228.9747 454,-228.9747 454,-206.9747 360,-206.9747"/>
<text text-anchor="start" x="363" y="-214.6747" font-family="Helvetica,sans-Serif" font-size="11.00" fill="#000000">varchar[50]</text>
<polygon fill="none" stroke="#000000" points="218,-184.9747 218,-206.9747 360,-206.9747 360,-184.9747 218,-184.9747"/>
<text text-anchor="start" x="238" y="-192.0747" font-family="Helvetica,sans-Serif" font-size="11.00" fill="#000000">risk_level</text>
<polygon fill="none" stroke="#000000" points="360,-184.9747 360,-206.9747 454,-206.9747 454,-184.9747 360,-184.9747"/>
<text text-anchor="start" x="363" y="-192.6747" font-family="Helvetica,sans-Serif" font-size="11.00" fill="#000000">varchar[20]</text>
<polygon fill="none" stroke="#000000" points="218,-162.9747 218,-184.9747 360,-184.9747 360,-162.9747 218,-162.9747"/>
<text text-anchor="start" x="238" y="-170.0747" font-family="Helvetica,sans-Serif" font-size="11.00" fill="#000000">requires_approval</text>
<polygon fill="none" stroke="#000000" points="360,-162.9747 360,-184.9747 454,-184.9747 454,-162.9747 360,-162.9747"/>
<text text-anchor="start" x="363" y="-170.6747" font-family="Helvetica,sans-Serif" font-size="11.00" fill="#000000">bool[1]</text>
<polygon fill="none" stroke="#000000" points="218,-140.9747 218,-162.9747 360,-162.9747 360,-140.9747 218,-140.9747"/>
<text text-anchor="start" x="238" y="-148.0747" font-family="Helvetica,sans-Serif" font-size="11.00" fill="#000000">is_active</text>
<polygon fill="none" stroke="#000000" points="360,-140.9747 360,-162.9747 454,-162.9747 454,-140.9747 360,-140.9747"/>
<text text-anchor="start" x="363" y="-148.6747" font-family="Helvetica,sans-Serif" font-size="11.00" fill="#000000">bool[1]</text>
<polygon fill="none" stroke="#000000" points="218,-118.9747 218,-140.9747 360,-140.9747 360,-118.9747 218,-118.9747"/>
<text text-anchor="start" x="238" y="-126.0747" font-family="Helvetica,sans-Serif" font-size="11.00" fill="#000000">created_at</text>
<polygon fill="none" stroke="#000000" points="360,-118.9747 360,-140.9747 454,-140.9747 454,-118.9747 360,-118.9747"/>
<text text-anchor="start" x="363" y="-126.6747" font-family="Helvetica,sans-Serif" font-size="11.00" fill="#000000">timestamptz[35,6]</text>
<polygon fill="#ffffff" stroke="transparent" points="218,-99.9747 218,-118.9747 293,-118.9747 293,-99.9747 218,-99.9747"/>
<polygon fill="none" stroke="#000000" points="218,-99.9747 218,-118.9747 293,-118.9747 293,-99.9747 218,-99.9747"/>
<text text-anchor="start" x="221" y="-106.0747" font-family="Helvetica,sans-Serif" font-size="11.00" fill="#000000">&lt; 1</text>
<polygon fill="#ffffff" stroke="transparent" points="293,-99.9747 293,-118.9747 360,-118.9747 360,-99.9747 293,-99.9747"/>
<polygon fill="none" stroke="#000000" points="293,-99.9747 293,-118.9747 360,-118.9747 360,-99.9747 293,-99.9747"/>
<text text-anchor="start" x="350.8862" y="-106.0747" font-family="Helvetica,sans-Serif" font-size="11.00" fill="#000000"> &#160;</text>
<polygon fill="#ffffff" stroke="transparent" points="360,-99.9747 360,-118.9747 454,-118.9747 454,-99.9747 360,-99.9747"/>
<polygon fill="none" stroke="#000000" points="360,-99.9747 360,-118.9747 454,-118.9747 454,-99.9747 360,-99.9747"/>
<text text-anchor="start" x="435.4053" y="-106.0747" font-family="Helvetica,sans-Serif" font-size="11.00" fill="#000000">2 &gt;</text>
<polygon fill="none" stroke="#000000" stroke-width="2" points="217,-98.9747 217,-384.9747 455,-384.9747 455,-98.9747 217,-98.9747"/>
</a>
</g>
</g>
<!-- tenants -->
<g id="node2" class="node">
<title>tenants</title>
<g id="a_node2"><a xlink:href="../../tables/tenants.html" xlink:title="tenants" target="_top">
<polygon fill="#ffffff" stroke="transparent" points="8,-169.4747 8,-362.4747 167,-362.4747 167,-169.4747 8,-169.4747"/>
<polygon fill="#f5f5f5" stroke="transparent" points="8.5,-338.9747 8.5,-361.9747 167.5,-361.9747 167.5,-338.9747 8.5,-338.9747"/>
<polygon fill="none" stroke="#000000" points="8.5,-338.9747 8.5,-361.9747 167.5,-361.9747 167.5,-338.9747 8.5,-338.9747"/>
<text text-anchor="start" x="13.5" y="-347.5747" font-family="Helvetica,sans-Serif" font-weight="bold" font-size="11.00" fill="#000000">tenants</text>
<text text-anchor="start" x="132.5437" y="-347.0747" font-family="Helvetica,sans-Serif" font-size="11.00" fill="#000000">[table]</text>
<polygon fill="none" stroke="#000000" points="8.5,-316.9747 8.5,-338.9747 167.5,-338.9747 167.5,-316.9747 8.5,-316.9747"/>
<image xlink:href="../../images/primaryKeys.png" width="11px" height="12px" preserveAspectRatio="xMinYMin meet" x="13.5" y="-333.975"/>
<text text-anchor="start" x="28.5" y="-324.0747" font-family="Helvetica,sans-Serif" font-size="11.00" fill="#000000">id</text>
<polygon fill="#ffffff" stroke="transparent" points="8.5,-294.9747 8.5,-316.9747 167.5,-316.9747 167.5,-294.9747 8.5,-294.9747"/>
<polygon fill="none" stroke="#000000" points="8.5,-294.9747 8.5,-316.9747 167.5,-316.9747 167.5,-294.9747 8.5,-294.9747"/>
<text text-anchor="start" x="28.5" y="-302.0747" font-family="Helvetica,sans-Serif" font-size="11.00" fill="#000000">slug</text>
<polygon fill="#ffffff" stroke="transparent" points="8.5,-272.9747 8.5,-294.9747 167.5,-294.9747 167.5,-272.9747 8.5,-272.9747"/>
<polygon fill="none" stroke="#000000" points="8.5,-272.9747 8.5,-294.9747 167.5,-294.9747 167.5,-272.9747 8.5,-272.9747"/>
<text text-anchor="start" x="28.5" y="-280.0747" font-family="Helvetica,sans-Serif" font-size="11.00" fill="#000000">name</text>
<polygon fill="#ffffff" stroke="transparent" points="8.5,-250.9747 8.5,-272.9747 167.5,-272.9747 167.5,-250.9747 8.5,-250.9747"/>
<polygon fill="none" stroke="#000000" points="8.5,-250.9747 8.5,-272.9747 167.5,-272.9747 167.5,-250.9747 8.5,-250.9747"/>
<text text-anchor="start" x="28.5" y="-258.0747" font-family="Helvetica,sans-Serif" font-size="11.00" fill="#000000">subdomain</text>
<polygon fill="#ffffff" stroke="transparent" points="8.5,-228.9747 8.5,-250.9747 167.5,-250.9747 167.5,-228.9747 8.5,-228.9747"/>
<polygon fill="none" stroke="#000000" points="8.5,-228.9747 8.5,-250.9747 167.5,-250.9747 167.5,-228.9747 8.5,-228.9747"/>
<text text-anchor="start" x="28.5" y="-236.0747" font-family="Helvetica,sans-Serif" font-size="11.00" fill="#000000">status</text>
<polygon fill="#ffffff" stroke="transparent" points="8.5,-206.9747 8.5,-228.9747 167.5,-228.9747 167.5,-206.9747 8.5,-206.9747"/>
<polygon fill="none" stroke="#000000" points="8.5,-206.9747 8.5,-228.9747 167.5,-228.9747 167.5,-206.9747 8.5,-206.9747"/>
<text text-anchor="start" x="28.5" y="-214.0747" font-family="Helvetica,sans-Serif" font-size="11.00" fill="#000000">deleted_at</text>
<polygon fill="none" stroke="#000000" points="8.5,-187.9747 8.5,-206.9747 167.5,-206.9747 167.5,-187.9747 8.5,-187.9747"/>
<text text-anchor="start" x="11.5" y="-194.0747" font-family="Helvetica,sans-Serif" font-size="11.00" fill="#000000">...</text>
<polygon fill="#ffffff" stroke="transparent" points="8.5,-168.9747 8.5,-187.9747 74.5,-187.9747 74.5,-168.9747 8.5,-168.9747"/>
<polygon fill="none" stroke="#000000" points="8.5,-168.9747 8.5,-187.9747 74.5,-187.9747 74.5,-168.9747 8.5,-168.9747"/>
<text text-anchor="start" x="11.5" y="-175.0747" font-family="Helvetica,sans-Serif" font-size="11.00" fill="#000000"> &#160;</text>
<polygon fill="#ffffff" stroke="transparent" points="74.5,-168.9747 74.5,-187.9747 113.5,-187.9747 113.5,-168.9747 74.5,-168.9747"/>
<polygon fill="none" stroke="#000000" points="74.5,-168.9747 74.5,-187.9747 113.5,-187.9747 113.5,-168.9747 74.5,-168.9747"/>
<text text-anchor="start" x="104.3862" y="-175.0747" font-family="Helvetica,sans-Serif" font-size="11.00" fill="#000000"> &#160;</text>
<polygon fill="#ffffff" stroke="transparent" points="113.5,-168.9747 113.5,-187.9747 167.5,-187.9747 167.5,-168.9747 113.5,-168.9747"/>
<polygon fill="none" stroke="#000000" points="113.5,-168.9747 113.5,-187.9747 167.5,-187.9747 167.5,-168.9747 113.5,-168.9747"/>
<text text-anchor="start" x="142.7904" y="-175.0747" font-family="Helvetica,sans-Serif" font-size="11.00" fill="#000000">37 &gt;</text>
</a>
</g>
</g>
<!-- actions&#45;&gt;tenants -->
<g id="edge1" class="edge">
<title>actions:w&#45;&gt;tenants:e</title>
<path fill="none" stroke="#000000" d="M203.4203,-327.9747C191.5435,-327.9747 184.158,-327.9747 167.5,-327.9747"/>
<polygon fill="#000000" stroke="#000000" points="210,-327.9747 218,-331.5747 214,-327.9747 218,-327.9747 218,-327.9747 218,-327.9747 214,-327.9747 218,-324.3747 210,-327.9747 210,-327.9747"/>
<ellipse fill="none" stroke="#000000" cx="206.8" cy="-327.9747" rx="3.2" ry="3.2"/>
</g>
<!-- audit_log -->
<g id="node3" class="node">
<title>audit_log</title>
<g id="a_node3"><a xlink:href="../../tables/audit_log.html" xlink:title="audit_log" target="_top">
<polygon fill="#ffffff" stroke="transparent" points="689,-177.4747 689,-480.4747 825,-480.4747 825,-177.4747 689,-177.4747"/>
<polygon fill="#f5f5f5" stroke="transparent" points="689,-456.9747 689,-479.9747 825,-479.9747 825,-456.9747 689,-456.9747"/>
<polygon fill="none" stroke="#000000" points="689,-456.9747 689,-479.9747 825,-479.9747 825,-456.9747 689,-456.9747"/>
<text text-anchor="start" x="694" y="-465.5747" font-family="Helvetica,sans-Serif" font-weight="bold" font-size="11.00" fill="#000000">audit_log</text>
<text text-anchor="start" x="790.0437" y="-465.0747" font-family="Helvetica,sans-Serif" font-size="11.00" fill="#000000">[table]</text>
<polygon fill="none" stroke="#000000" points="689,-434.9747 689,-456.9747 825,-456.9747 825,-434.9747 689,-434.9747"/>
<image xlink:href="../../images/primaryKeys.png" width="11px" height="12px" preserveAspectRatio="xMinYMin meet" x="694" y="-451.975"/>
<text text-anchor="start" x="709" y="-442.0747" font-family="Helvetica,sans-Serif" font-size="11.00" fill="#000000">id</text>
<polygon fill="none" stroke="#000000" points="689,-412.9747 689,-434.9747 825,-434.9747 825,-412.9747 689,-412.9747"/>
<image xlink:href="../../images/foreignKeys.png" width="11px" height="12px" preserveAspectRatio="xMinYMin meet" x="694" y="-429.975"/>
<text text-anchor="start" x="709" y="-420.0747" font-family="Helvetica,sans-Serif" font-size="11.00" fill="#000000">tenant_id</text>
<polygon fill="none" stroke="#000000" points="689,-390.9747 689,-412.9747 825,-412.9747 825,-390.9747 689,-390.9747"/>
<image xlink:href="../../images/foreignKeys.png" width="11px" height="12px" preserveAspectRatio="xMinYMin meet" x="694" y="-407.975"/>
<text text-anchor="start" x="709" y="-398.0747" font-family="Helvetica,sans-Serif" font-size="11.00" fill="#000000">user_id</text>
<polygon fill="none" stroke="#000000" points="689,-368.9747 689,-390.9747 825,-390.9747 825,-368.9747 689,-368.9747"/>
<image xlink:href="../../images/foreignKeys.png" width="11px" height="12px" preserveAspectRatio="xMinYMin meet" x="694" y="-385.975"/>
<text text-anchor="start" x="709" y="-376.0747" font-family="Helvetica,sans-Serif" font-size="11.00" fill="#000000">target_user_id</text>
<polygon fill="none" stroke="#000000" points="689,-346.9747 689,-368.9747 825,-368.9747 825,-346.9747 689,-346.9747"/>
<image xlink:href="../../images/foreignKeys.png" width="11px" height="12px" preserveAspectRatio="xMinYMin meet" x="694" y="-363.975"/>
<text text-anchor="start" x="709" y="-354.0747" font-family="Helvetica,sans-Serif" font-size="11.00" fill="#000000">entity_id</text>
<polygon fill="none" stroke="#000000" points="689,-324.9747 689,-346.9747 825,-346.9747 825,-324.9747 689,-324.9747"/>
<image xlink:href="../../images/foreignKeys.png" width="11px" height="12px" preserveAspectRatio="xMinYMin meet" x="694" y="-341.975"/>
<text text-anchor="start" x="709" y="-332.0747" font-family="Helvetica,sans-Serif" font-size="11.00" fill="#000000">resource_id</text>
<polygon fill="none" stroke="#000000" points="689,-302.9747 689,-324.9747 825,-324.9747 825,-302.9747 689,-302.9747"/>
<image xlink:href="../../images/foreignKeys.png" width="11px" height="12px" preserveAspectRatio="xMinYMin meet" x="694" y="-319.975"/>
<text text-anchor="start" x="709" y="-310.0747" font-family="Helvetica,sans-Serif" font-size="11.00" fill="#000000">action_id</text>
<polygon fill="none" stroke="#000000" points="689,-280.9747 689,-302.9747 825,-302.9747 825,-280.9747 689,-280.9747"/>
<image xlink:href="../../images/foreignKeys.png" width="11px" height="12px" preserveAspectRatio="xMinYMin meet" x="694" y="-297.975"/>
<text text-anchor="start" x="709" y="-288.0747" font-family="Helvetica,sans-Serif" font-size="11.00" fill="#000000">role_id</text>
<polygon fill="none" stroke="#000000" points="689,-258.9747 689,-280.9747 825,-280.9747 825,-258.9747 689,-258.9747"/>
<image xlink:href="../../images/foreignKeys.png" width="11px" height="12px" preserveAspectRatio="xMinYMin meet" x="694" y="-275.975"/>
<text text-anchor="start" x="709" y="-266.0747" font-family="Helvetica,sans-Serif" font-size="11.00" fill="#000000">permission_id</text>
<polygon fill="none" stroke="#000000" points="689,-236.9747 689,-258.9747 825,-258.9747 825,-236.9747 689,-236.9747"/>
<image xlink:href="../../images/foreignKeys.png" width="11px" height="12px" preserveAspectRatio="xMinYMin meet" x="694" y="-253.975"/>
<text text-anchor="start" x="709" y="-244.0747" font-family="Helvetica,sans-Serif" font-size="11.00" fill="#000000">session_id</text>
<polygon fill="#ffffff" stroke="transparent" points="689,-214.9747 689,-236.9747 825,-236.9747 825,-214.9747 689,-214.9747"/>
<polygon fill="none" stroke="#000000" points="689,-214.9747 689,-236.9747 825,-236.9747 825,-214.9747 689,-214.9747"/>
<text text-anchor="start" x="709" y="-222.0747" font-family="Helvetica,sans-Serif" font-size="11.00" fill="#000000">created_at</text>
<polygon fill="none" stroke="#000000" points="689,-195.9747 689,-214.9747 825,-214.9747 825,-195.9747 689,-195.9747"/>
<text text-anchor="start" x="692" y="-202.0747" font-family="Helvetica,sans-Serif" font-size="11.00" fill="#000000">...</text>
<polygon fill="#ffffff" stroke="transparent" points="689,-176.9747 689,-195.9747 755,-195.9747 755,-176.9747 689,-176.9747"/>
<polygon fill="none" stroke="#000000" points="689,-176.9747 689,-195.9747 755,-195.9747 755,-176.9747 689,-176.9747"/>
<text text-anchor="start" x="692" y="-183.0747" font-family="Helvetica,sans-Serif" font-size="11.00" fill="#000000">&lt; 9</text>
<polygon fill="#ffffff" stroke="transparent" points="755,-176.9747 755,-195.9747 790,-195.9747 790,-176.9747 755,-176.9747"/>
<polygon fill="none" stroke="#000000" points="755,-176.9747 755,-195.9747 790,-195.9747 790,-176.9747 755,-176.9747"/>
<text text-anchor="start" x="780.8862" y="-183.0747" font-family="Helvetica,sans-Serif" font-size="11.00" fill="#000000"> &#160;</text>
<polygon fill="#ffffff" stroke="transparent" points="790,-176.9747 790,-195.9747 825,-195.9747 825,-176.9747 790,-176.9747"/>
<polygon fill="none" stroke="#000000" points="790,-176.9747 790,-195.9747 825,-195.9747 825,-176.9747 790,-176.9747"/>
<text text-anchor="start" x="815.8862" y="-183.0747" font-family="Helvetica,sans-Serif" font-size="11.00" fill="#000000"> &#160;</text>
</a>
</g>
</g>
<!-- audit_log&#45;&gt;actions -->
<g id="edge2" class="edge">
<title>audit_log:w&#45;&gt;actions:e</title>
<path fill="none" stroke="#000000" d="M674.3768,-314.2141C580.8837,-317.3375 554.6067,-349.9747 454,-349.9747"/>
<polygon fill="#000000" stroke="#000000" points="681.0011,-314.1057 689.059,-317.5742 685.0005,-314.0402 689,-313.9747 689,-313.9747 689,-313.9747 685.0005,-314.0402 688.941,-310.3751 681.0011,-314.1057 681.0011,-314.1057"/>
<ellipse fill="none" stroke="#000000" cx="677.8015" cy="-314.1581" rx="3.2" ry="3.2"/>
</g>
<!-- audit_log&#45;&gt;tenants -->
<g id="edge4" class="edge">
<title>audit_log:w&#45;&gt;tenants:e</title>
<path fill="none" stroke="#000000" d="M674.4613,-424.1049C470.9723,-427.7525 386.5617,-505.9729 208,-396.9747 177.6488,-378.4476 203.059,-327.9747 167.5,-327.9747"/>
<polygon fill="#000000" stroke="#000000" points="681.0003,-424.0464 689.0323,-427.5745 685.0002,-424.0105 689,-423.9747 689,-423.9747 689,-423.9747 685.0002,-424.0105 688.9677,-420.3748 681.0003,-424.0464 681.0003,-424.0464"/>
<ellipse fill="none" stroke="#000000" cx="677.8004" cy="-424.075" rx="3.2" ry="3.2"/>
</g>
<!-- permissions -->
<g id="node4" class="node">
<title>permissions</title>
<g id="a_node4"><a xlink:href="../../tables/permissions.html" xlink:title="permissions" target="_top">
<polygon fill="#ffffff" stroke="transparent" points="505,-133.4747 505,-304.4747 640,-304.4747 640,-133.4747 505,-133.4747"/>
<polygon fill="#f5f5f5" stroke="transparent" points="505.5,-280.9747 505.5,-303.9747 640.5,-303.9747 640.5,-280.9747 505.5,-280.9747"/>
<polygon fill="none" stroke="#000000" points="505.5,-280.9747 505.5,-303.9747 640.5,-303.9747 640.5,-280.9747 505.5,-280.9747"/>
<text text-anchor="start" x="510.5" y="-289.5747" font-family="Helvetica,sans-Serif" font-weight="bold" font-size="11.00" fill="#000000">permissions</text>
<text text-anchor="start" x="605.5437" y="-289.0747" font-family="Helvetica,sans-Serif" font-size="11.00" fill="#000000">[table]</text>
<polygon fill="none" stroke="#000000" points="505.5,-258.9747 505.5,-280.9747 640.5,-280.9747 640.5,-258.9747 505.5,-258.9747"/>
<image xlink:href="../../images/primaryKeys.png" width="11px" height="12px" preserveAspectRatio="xMinYMin meet" x="510.5" y="-275.975"/>
<text text-anchor="start" x="525.5" y="-266.0747" font-family="Helvetica,sans-Serif" font-size="11.00" fill="#000000">id</text>
<polygon fill="#ffffff" stroke="transparent" points="505.5,-236.9747 505.5,-258.9747 640.5,-258.9747 640.5,-236.9747 505.5,-236.9747"/>
<polygon fill="none" stroke="#000000" points="505.5,-236.9747 505.5,-258.9747 640.5,-258.9747 640.5,-236.9747 505.5,-236.9747"/>
<image xlink:href="../../images/foreignKeys.png" width="11px" height="12px" preserveAspectRatio="xMinYMin meet" x="510.5" y="-253.975"/>
<text text-anchor="start" x="525.5" y="-244.0747" font-family="Helvetica,sans-Serif" font-size="11.00" fill="#000000">tenant_id</text>
<polygon fill="#ffffff" stroke="transparent" points="505.5,-214.9747 505.5,-236.9747 640.5,-236.9747 640.5,-214.9747 505.5,-214.9747"/>
<polygon fill="none" stroke="#000000" points="505.5,-214.9747 505.5,-236.9747 640.5,-236.9747 640.5,-214.9747 505.5,-214.9747"/>
<image xlink:href="../../images/foreignKeys.png" width="11px" height="12px" preserveAspectRatio="xMinYMin meet" x="510.5" y="-231.975"/>
<text text-anchor="start" x="525.5" y="-222.0747" font-family="Helvetica,sans-Serif" font-size="11.00" fill="#000000">resource_id</text>
<polygon fill="#ffffff" stroke="transparent" points="505.5,-192.9747 505.5,-214.9747 640.5,-214.9747 640.5,-192.9747 505.5,-192.9747"/>
<polygon fill="none" stroke="#000000" points="505.5,-192.9747 505.5,-214.9747 640.5,-214.9747 640.5,-192.9747 505.5,-192.9747"/>
<image xlink:href="../../images/foreignKeys.png" width="11px" height="12px" preserveAspectRatio="xMinYMin meet" x="510.5" y="-209.975"/>
<text text-anchor="start" x="525.5" y="-200.0747" font-family="Helvetica,sans-Serif" font-size="11.00" fill="#000000">action_id</text>
<polygon fill="#ffffff" stroke="transparent" points="505.5,-170.9747 505.5,-192.9747 640.5,-192.9747 640.5,-170.9747 505.5,-170.9747"/>
<polygon fill="none" stroke="#000000" points="505.5,-170.9747 505.5,-192.9747 640.5,-192.9747 640.5,-170.9747 505.5,-170.9747"/>
<text text-anchor="start" x="525.5" y="-178.0747" font-family="Helvetica,sans-Serif" font-size="11.00" fill="#000000">name</text>
<polygon fill="none" stroke="#000000" points="505.5,-151.9747 505.5,-170.9747 640.5,-170.9747 640.5,-151.9747 505.5,-151.9747"/>
<text text-anchor="start" x="508.5" y="-158.0747" font-family="Helvetica,sans-Serif" font-size="11.00" fill="#000000">...</text>
<polygon fill="#ffffff" stroke="transparent" points="505.5,-132.9747 505.5,-151.9747 566.5,-151.9747 566.5,-132.9747 505.5,-132.9747"/>
<polygon fill="none" stroke="#000000" points="505.5,-132.9747 505.5,-151.9747 566.5,-151.9747 566.5,-132.9747 505.5,-132.9747"/>
<text text-anchor="start" x="508.5" y="-139.0747" font-family="Helvetica,sans-Serif" font-size="11.00" fill="#000000">&lt; 3</text>
<polygon fill="#ffffff" stroke="transparent" points="566.5,-132.9747 566.5,-151.9747 598.5,-151.9747 598.5,-132.9747 566.5,-132.9747"/>
<polygon fill="none" stroke="#000000" points="566.5,-132.9747 566.5,-151.9747 598.5,-151.9747 598.5,-132.9747 566.5,-132.9747"/>
<text text-anchor="start" x="589.3862" y="-139.0747" font-family="Helvetica,sans-Serif" font-size="11.00" fill="#000000"> &#160;</text>
<polygon fill="#ffffff" stroke="transparent" points="598.5,-132.9747 598.5,-151.9747 640.5,-151.9747 640.5,-132.9747 598.5,-132.9747"/>
<polygon fill="none" stroke="#000000" points="598.5,-132.9747 598.5,-151.9747 640.5,-151.9747 640.5,-132.9747 598.5,-132.9747"/>
<text text-anchor="start" x="621.9053" y="-139.0747" font-family="Helvetica,sans-Serif" font-size="11.00" fill="#000000">4 &gt;</text>
</a>
</g>
</g>
<!-- audit_log&#45;&gt;permissions -->
<g id="edge3" class="edge">
<title>audit_log:w&#45;&gt;permissions:e</title>
<path fill="none" stroke="#000000" d="M674.2829,-269.9747C663.2886,-269.9747 656.1615,-269.9747 640.5,-269.9747"/>
<polygon fill="#000000" stroke="#000000" points="681,-269.9747 689,-273.5747 685,-269.9747 689,-269.9747 689,-269.9747 689,-269.9747 685,-269.9747 689,-266.3747 681,-269.9747 681,-269.9747"/>
<ellipse fill="none" stroke="#000000" cx="677.8" cy="-269.9747" rx="3.2" ry="3.2"/>
</g>
<!-- permissions&#45;&gt;actions -->
<g id="edge5" class="edge">
<title>permissions:w&#45;&gt;actions:e</title>
<path fill="none" stroke="#000000" d="M491.2584,-206.8911C450.0644,-227.4683 517.0287,-349.9747 454,-349.9747"/>
<polygon fill="#000000" stroke="#000000" points="497.6626,-205.5796 506.2222,-207.5015 501.5813,-204.7771 505.5,-203.9747 505.5,-203.9747 505.5,-203.9747 501.5813,-204.7771 504.7778,-200.4478 497.6626,-205.5796 497.6626,-205.5796"/>
<ellipse fill="none" stroke="#000000" cx="494.5277" cy="-206.2216" rx="3.2" ry="3.2"/>
</g>
<!-- permissions&#45;&gt;tenants -->
<g id="edge6" class="edge">
<title>permissions:w&#45;&gt;tenants:e</title>
<path fill="none" stroke="#000000" d="M491.1276,-245.9564C445.2045,-230.4267 517.564,-129.4179 464,-87.9747 374.0124,-18.3499 294.8892,-14.5196 208,-87.9747 166.6948,-122.8935 221.5874,-327.9747 167.5,-327.9747"/>
<polygon fill="#000000" stroke="#000000" points="497.5777,-246.8621 504.9994,-251.5397 501.5389,-247.4184 505.5,-247.9747 505.5,-247.9747 505.5,-247.9747 501.5389,-247.4184 506.0006,-244.4096 497.5777,-246.8621 497.5777,-246.8621"/>
<ellipse fill="none" stroke="#000000" cx="494.4088" cy="-246.4171" rx="3.2" ry="3.2"/>
</g>
</g>
</svg>
