<?xml version="1.0" encoding="UTF-8" standalone="no"?>
<!DOCTYPE svg PUBLIC "-//W3C//DTD SVG 1.1//EN"
 "http://www.w3.org/Graphics/SVG/1.1/DTD/svg11.dtd">
<!-- Generated by graphviz version 2.40.1 (20161225.0304)
 -->
<!-- Title: oneDegreeRelationshipsDiagram Pages: 1 -->
<svg width="698pt" height="404pt"
 viewBox="0.00 0.00 698.00 404.20" xmlns="http://www.w3.org/2000/svg" xmlns:xlink="http://www.w3.org/1999/xlink">
<g id="graph0" class="graph" transform="scale(1 1) rotate(0) translate(4 400.2)">
<title>oneDegreeRelationshipsDiagram</title>
<polygon fill="#ffffff" stroke="transparent" points="-4,4 -4,-400.2 694,-400.2 694,4 -4,4"/>
<text text-anchor="middle" x="72.4936" y="-7.3" font-family="Helvetica,sans-Serif" font-size="11.00" fill="#000000">Generated by SchemaSpy</text>
<!-- config_definitions -->
<g id="node1" class="node">
<title>config_definitions</title>
<g id="a_node1"><a xlink:href="../../tables/config_definitions.html" xlink:title="config_definitions" target="_top">
<polygon fill="#ffffff" stroke="transparent" points="413,-38.2 413,-392.2 682,-392.2 682,-38.2 413,-38.2"/>
<polygon fill="#f5f5f5" stroke="transparent" points="415.5,-367.2 415.5,-390.2 680.5,-390.2 680.5,-367.2 415.5,-367.2"/>
<polygon fill="none" stroke="#000000" points="415.5,-367.2 415.5,-390.2 680.5,-390.2 680.5,-367.2 415.5,-367.2"/>
<text text-anchor="start" x="420.5" y="-375.8" font-family="Helvetica,sans-Serif" font-weight="bold" font-size="11.00" fill="#000000">config_definitions</text>
<text text-anchor="start" x="645.5437" y="-375.3" font-family="Helvetica,sans-Serif" font-size="11.00" fill="#000000">[table]</text>
<polygon fill="none" stroke="#000000" points="415.5,-345.2 415.5,-367.2 581.5,-367.2 581.5,-345.2 415.5,-345.2"/>
<image xlink:href="../../images/primaryKeys.png" width="11px" height="12px" preserveAspectRatio="xMinYMin meet" x="420.5" y="-362.2"/>
<text text-anchor="start" x="435.5" y="-352.3" font-family="Helvetica,sans-Serif" font-size="11.00" fill="#000000">id</text>
<polygon fill="none" stroke="#000000" points="581.5,-345.2 581.5,-367.2 680.5,-367.2 680.5,-345.2 581.5,-345.2"/>
<text text-anchor="start" x="584.5" y="-352.9" font-family="Helvetica,sans-Serif" font-size="11.00" fill="#000000">uuid[2147483647]</text>
<polygon fill="none" stroke="#000000" points="415.5,-323.2 415.5,-345.2 581.5,-345.2 581.5,-323.2 415.5,-323.2"/>
<image xlink:href="../../images/foreignKeys.png" width="11px" height="12px" preserveAspectRatio="xMinYMin meet" x="420.5" y="-340.2"/>
<text text-anchor="start" x="435.5" y="-330.3" font-family="Helvetica,sans-Serif" font-size="11.00" fill="#000000">tenant_id</text>
<polygon fill="none" stroke="#000000" points="581.5,-323.2 581.5,-345.2 680.5,-345.2 680.5,-323.2 581.5,-323.2"/>
<text text-anchor="start" x="584.5" y="-330.9" font-family="Helvetica,sans-Serif" font-size="11.00" fill="#000000">uuid[2147483647]</text>
<polygon fill="none" stroke="#000000" points="415.5,-301.2 415.5,-323.2 581.5,-323.2 581.5,-301.2 415.5,-301.2"/>
<image xlink:href="../../images/foreignKeys.png" width="11px" height="12px" preserveAspectRatio="xMinYMin meet" x="420.5" y="-318.2"/>
<text text-anchor="start" x="435.5" y="-308.3" font-family="Helvetica,sans-Serif" font-size="11.00" fill="#000000">entity_id</text>
<polygon fill="none" stroke="#000000" points="581.5,-301.2 581.5,-323.2 680.5,-323.2 680.5,-301.2 581.5,-301.2"/>
<text text-anchor="start" x="584.5" y="-308.9" font-family="Helvetica,sans-Serif" font-size="11.00" fill="#000000">uuid[2147483647]</text>
<polygon fill="#ffffff" stroke="transparent" points="415.5,-279.2 415.5,-301.2 581.5,-301.2 581.5,-279.2 415.5,-279.2"/>
<polygon fill="none" stroke="#000000" points="415.5,-279.2 415.5,-301.2 581.5,-301.2 581.5,-279.2 415.5,-279.2"/>
<text text-anchor="start" x="435.5" y="-286.3" font-family="Helvetica,sans-Serif" font-size="11.00" fill="#000000">module_name</text>
<polygon fill="none" stroke="#000000" points="581.5,-279.2 581.5,-301.2 680.5,-301.2 680.5,-279.2 581.5,-279.2"/>
<text text-anchor="start" x="584.5" y="-286.9" font-family="Helvetica,sans-Serif" font-size="11.00" fill="#000000">varchar[50]</text>
<polygon fill="#ffffff" stroke="transparent" points="415.5,-257.2 415.5,-279.2 581.5,-279.2 581.5,-257.2 415.5,-257.2"/>
<polygon fill="none" stroke="#000000" points="415.5,-257.2 415.5,-279.2 581.5,-279.2 581.5,-257.2 415.5,-257.2"/>
<text text-anchor="start" x="435.5" y="-264.3" font-family="Helvetica,sans-Serif" font-size="11.00" fill="#000000">config_key</text>
<polygon fill="none" stroke="#000000" points="581.5,-257.2 581.5,-279.2 680.5,-279.2 680.5,-257.2 581.5,-257.2"/>
<text text-anchor="start" x="584.5" y="-264.9" font-family="Helvetica,sans-Serif" font-size="11.00" fill="#000000">varchar[100]</text>
<polygon fill="none" stroke="#000000" points="415.5,-235.2 415.5,-257.2 581.5,-257.2 581.5,-235.2 415.5,-235.2"/>
<text text-anchor="start" x="435.5" y="-242.3" font-family="Helvetica,sans-Serif" font-size="11.00" fill="#000000">data_type</text>
<polygon fill="none" stroke="#000000" points="581.5,-235.2 581.5,-257.2 680.5,-257.2 680.5,-235.2 581.5,-235.2"/>
<text text-anchor="start" x="584.5" y="-242.9" font-family="Helvetica,sans-Serif" font-size="11.00" fill="#000000">varchar[20]</text>
<polygon fill="none" stroke="#000000" points="415.5,-213.2 415.5,-235.2 581.5,-235.2 581.5,-213.2 415.5,-213.2"/>
<text text-anchor="start" x="435.5" y="-220.3" font-family="Helvetica,sans-Serif" font-size="11.00" fill="#000000">default_value</text>
<polygon fill="none" stroke="#000000" points="581.5,-213.2 581.5,-235.2 680.5,-235.2 680.5,-213.2 581.5,-213.2"/>
<text text-anchor="start" x="584.2258" y="-220.9" font-family="Helvetica,sans-Serif" font-size="11.00" fill="#000000">jsonb[2147483647]</text>
<polygon fill="none" stroke="#000000" points="415.5,-191.2 415.5,-213.2 581.5,-213.2 581.5,-191.2 415.5,-191.2"/>
<text text-anchor="start" x="435.5" y="-198.3" font-family="Helvetica,sans-Serif" font-size="11.00" fill="#000000">validation_rules</text>
<polygon fill="none" stroke="#000000" points="581.5,-191.2 581.5,-213.2 680.5,-213.2 680.5,-191.2 581.5,-191.2"/>
<text text-anchor="start" x="584.2258" y="-198.9" font-family="Helvetica,sans-Serif" font-size="11.00" fill="#000000">jsonb[2147483647]</text>
<polygon fill="none" stroke="#000000" points="415.5,-169.2 415.5,-191.2 581.5,-191.2 581.5,-169.2 415.5,-169.2"/>
<text text-anchor="start" x="435.5" y="-176.3" font-family="Helvetica,sans-Serif" font-size="11.00" fill="#000000">description</text>
<polygon fill="none" stroke="#000000" points="581.5,-169.2 581.5,-191.2 680.5,-191.2 680.5,-169.2 581.5,-169.2"/>
<text text-anchor="start" x="584.5" y="-176.9" font-family="Helvetica,sans-Serif" font-size="11.00" fill="#000000">text[2147483647]</text>
<polygon fill="none" stroke="#000000" points="415.5,-147.2 415.5,-169.2 581.5,-169.2 581.5,-147.2 415.5,-147.2"/>
<text text-anchor="start" x="435.5" y="-154.3" font-family="Helvetica,sans-Serif" font-size="11.00" fill="#000000">required_permission</text>
<polygon fill="none" stroke="#000000" points="581.5,-147.2 581.5,-169.2 680.5,-169.2 680.5,-147.2 581.5,-147.2"/>
<text text-anchor="start" x="584.5" y="-154.9" font-family="Helvetica,sans-Serif" font-size="11.00" fill="#000000">varchar[100]</text>
<polygon fill="none" stroke="#000000" points="415.5,-125.2 415.5,-147.2 581.5,-147.2 581.5,-125.2 415.5,-125.2"/>
<text text-anchor="start" x="435.5" y="-132.3" font-family="Helvetica,sans-Serif" font-size="11.00" fill="#000000">required_feature_flag</text>
<polygon fill="none" stroke="#000000" points="581.5,-125.2 581.5,-147.2 680.5,-147.2 680.5,-125.2 581.5,-125.2"/>
<text text-anchor="start" x="584.5" y="-132.9" font-family="Helvetica,sans-Serif" font-size="11.00" fill="#000000">varchar[100]</text>
<polygon fill="none" stroke="#000000" points="415.5,-103.2 415.5,-125.2 581.5,-125.2 581.5,-103.2 415.5,-103.2"/>
<text text-anchor="start" x="435.5" y="-110.3" font-family="Helvetica,sans-Serif" font-size="11.00" fill="#000000">is_overridable</text>
<polygon fill="none" stroke="#000000" points="581.5,-103.2 581.5,-125.2 680.5,-125.2 680.5,-103.2 581.5,-103.2"/>
<text text-anchor="start" x="584.5" y="-110.9" font-family="Helvetica,sans-Serif" font-size="11.00" fill="#000000">bool[1]</text>
<polygon fill="none" stroke="#000000" points="415.5,-81.2 415.5,-103.2 581.5,-103.2 581.5,-81.2 415.5,-81.2"/>
<text text-anchor="start" x="435.5" y="-88.3" font-family="Helvetica,sans-Serif" font-size="11.00" fill="#000000">created_at</text>
<polygon fill="none" stroke="#000000" points="581.5,-81.2 581.5,-103.2 680.5,-103.2 680.5,-81.2 581.5,-81.2"/>
<text text-anchor="start" x="584.5" y="-88.9" font-family="Helvetica,sans-Serif" font-size="11.00" fill="#000000">timestamptz[35,6]</text>
<polygon fill="none" stroke="#000000" points="415.5,-59.2 415.5,-81.2 581.5,-81.2 581.5,-59.2 415.5,-59.2"/>
<text text-anchor="start" x="435.5" y="-66.3" font-family="Helvetica,sans-Serif" font-size="11.00" fill="#000000">updated_at</text>
<polygon fill="none" stroke="#000000" points="581.5,-59.2 581.5,-81.2 680.5,-81.2 680.5,-59.2 581.5,-59.2"/>
<text text-anchor="start" x="584.5" y="-66.9" font-family="Helvetica,sans-Serif" font-size="11.00" fill="#000000">timestamptz[35,6]</text>
<polygon fill="#ffffff" stroke="transparent" points="415.5,-40.2 415.5,-59.2 502.5,-59.2 502.5,-40.2 415.5,-40.2"/>
<polygon fill="none" stroke="#000000" points="415.5,-40.2 415.5,-59.2 502.5,-59.2 502.5,-40.2 415.5,-40.2"/>
<text text-anchor="start" x="418.5" y="-46.3" font-family="Helvetica,sans-Serif" font-size="11.00" fill="#000000">&lt; 2</text>
<polygon fill="#ffffff" stroke="transparent" points="502.5,-40.2 502.5,-59.2 581.5,-59.2 581.5,-40.2 502.5,-40.2"/>
<polygon fill="none" stroke="#000000" points="502.5,-40.2 502.5,-59.2 581.5,-59.2 581.5,-40.2 502.5,-40.2"/>
<text text-anchor="start" x="572.3862" y="-46.3" font-family="Helvetica,sans-Serif" font-size="11.00" fill="#000000"> &#160;</text>
<polygon fill="#ffffff" stroke="transparent" points="581.5,-40.2 581.5,-59.2 680.5,-59.2 680.5,-40.2 581.5,-40.2"/>
<polygon fill="none" stroke="#000000" points="581.5,-40.2 581.5,-59.2 680.5,-59.2 680.5,-40.2 581.5,-40.2"/>
<text text-anchor="start" x="661.9053" y="-46.3" font-family="Helvetica,sans-Serif" font-size="11.00" fill="#000000">0 &gt;</text>
<polygon fill="none" stroke="#000000" stroke-width="2" points="414,-39.2 414,-391.2 681,-391.2 681,-39.2 414,-39.2"/>
</a>
</g>
</g>
<!-- entities -->
<g id="node2" class="node">
<title>entities</title>
<g id="a_node2"><a xlink:href="../../tables/entities.html" xlink:title="entities" target="_top">
<polygon fill="#ffffff" stroke="transparent" points="216,-47.7 216,-328.7 364,-328.7 364,-47.7 216,-47.7"/>
<polygon fill="#f5f5f5" stroke="transparent" points="216,-305.2 216,-328.2 364,-328.2 364,-305.2 216,-305.2"/>
<polygon fill="none" stroke="#000000" points="216,-305.2 216,-328.2 364,-328.2 364,-305.2 216,-305.2"/>
<text text-anchor="start" x="221" y="-313.8" font-family="Helvetica,sans-Serif" font-weight="bold" font-size="11.00" fill="#000000">entities</text>
<text text-anchor="start" x="329.0437" y="-313.3" font-family="Helvetica,sans-Serif" font-size="11.00" fill="#000000">[table]</text>
<polygon fill="none" stroke="#000000" points="216,-283.2 216,-305.2 364,-305.2 364,-283.2 216,-283.2"/>
<image xlink:href="../../images/primaryKeys.png" width="11px" height="12px" preserveAspectRatio="xMinYMin meet" x="221" y="-300.2"/>
<text text-anchor="start" x="236" y="-290.3" font-family="Helvetica,sans-Serif" font-size="11.00" fill="#000000">uuid</text>
<polygon fill="#ffffff" stroke="transparent" points="216,-261.2 216,-283.2 364,-283.2 364,-261.2 216,-261.2"/>
<polygon fill="none" stroke="#000000" points="216,-261.2 216,-283.2 364,-283.2 364,-261.2 216,-261.2"/>
<image xlink:href="../../images/foreignKeys.png" width="11px" height="12px" preserveAspectRatio="xMinYMin meet" x="221" y="-278.2"/>
<text text-anchor="start" x="236" y="-268.3" font-family="Helvetica,sans-Serif" font-size="11.00" fill="#000000">tenant_id</text>
<polygon fill="#ffffff" stroke="transparent" points="216,-239.2 216,-261.2 364,-261.2 364,-239.2 216,-239.2"/>
<polygon fill="none" stroke="#000000" points="216,-239.2 216,-261.2 364,-261.2 364,-239.2 216,-239.2"/>
<image xlink:href="../../images/foreignKeys.png" width="11px" height="12px" preserveAspectRatio="xMinYMin meet" x="221" y="-256.2"/>
<text text-anchor="start" x="236" y="-246.3" font-family="Helvetica,sans-Serif" font-size="11.00" fill="#000000">parent_id</text>
<polygon fill="#ffffff" stroke="transparent" points="216,-217.2 216,-239.2 364,-239.2 364,-217.2 216,-217.2"/>
<polygon fill="none" stroke="#000000" points="216,-217.2 216,-239.2 364,-239.2 364,-217.2 216,-217.2"/>
<text text-anchor="start" x="236" y="-224.3" font-family="Helvetica,sans-Serif" font-size="11.00" fill="#000000">name</text>
<polygon fill="#ffffff" stroke="transparent" points="216,-195.2 216,-217.2 364,-217.2 364,-195.2 216,-195.2"/>
<polygon fill="none" stroke="#000000" points="216,-195.2 216,-217.2 364,-217.2 364,-195.2 216,-195.2"/>
<text text-anchor="start" x="236" y="-202.3" font-family="Helvetica,sans-Serif" font-size="11.00" fill="#000000">code</text>
<polygon fill="#ffffff" stroke="transparent" points="216,-173.2 216,-195.2 364,-195.2 364,-173.2 216,-173.2"/>
<polygon fill="none" stroke="#000000" points="216,-173.2 216,-195.2 364,-195.2 364,-173.2 216,-173.2"/>
<text text-anchor="start" x="236" y="-180.3" font-family="Helvetica,sans-Serif" font-size="11.00" fill="#000000">type</text>
<polygon fill="#ffffff" stroke="transparent" points="216,-151.2 216,-173.2 364,-173.2 364,-151.2 216,-151.2"/>
<polygon fill="none" stroke="#000000" points="216,-151.2 216,-173.2 364,-173.2 364,-151.2 216,-151.2"/>
<text text-anchor="start" x="236" y="-158.3" font-family="Helvetica,sans-Serif" font-size="11.00" fill="#000000">is_active</text>
<polygon fill="#ffffff" stroke="transparent" points="216,-129.2 216,-151.2 364,-151.2 364,-129.2 216,-129.2"/>
<polygon fill="none" stroke="#000000" points="216,-129.2 216,-151.2 364,-151.2 364,-129.2 216,-129.2"/>
<text text-anchor="start" x="236" y="-136.3" font-family="Helvetica,sans-Serif" font-size="11.00" fill="#000000">address</text>
<polygon fill="#ffffff" stroke="transparent" points="216,-107.2 216,-129.2 364,-129.2 364,-107.2 216,-107.2"/>
<polygon fill="none" stroke="#000000" points="216,-107.2 216,-129.2 364,-129.2 364,-107.2 216,-107.2"/>
<text text-anchor="start" x="236" y="-114.3" font-family="Helvetica,sans-Serif" font-size="11.00" fill="#000000">settings</text>
<polygon fill="#ffffff" stroke="transparent" points="216,-85.2 216,-107.2 364,-107.2 364,-85.2 216,-85.2"/>
<polygon fill="none" stroke="#000000" points="216,-85.2 216,-107.2 364,-107.2 364,-85.2 216,-85.2"/>
<text text-anchor="start" x="236" y="-92.3" font-family="Helvetica,sans-Serif" font-size="11.00" fill="#000000">deleted_at</text>
<polygon fill="none" stroke="#000000" points="216,-66.2 216,-85.2 364,-85.2 364,-66.2 216,-66.2"/>
<text text-anchor="start" x="219" y="-72.3" font-family="Helvetica,sans-Serif" font-size="11.00" fill="#000000">...</text>
<polygon fill="#ffffff" stroke="transparent" points="216,-47.2 216,-66.2 281,-66.2 281,-47.2 216,-47.2"/>
<polygon fill="none" stroke="#000000" points="216,-47.2 216,-66.2 281,-66.2 281,-47.2 216,-47.2"/>
<text text-anchor="start" x="219" y="-53.3" font-family="Helvetica,sans-Serif" font-size="11.00" fill="#000000">&lt; 2</text>
<polygon fill="#ffffff" stroke="transparent" points="281,-47.2 281,-66.2 315,-66.2 315,-47.2 281,-47.2"/>
<polygon fill="none" stroke="#000000" points="281,-47.2 281,-66.2 315,-66.2 315,-47.2 281,-47.2"/>
<text text-anchor="start" x="305.8862" y="-53.3" font-family="Helvetica,sans-Serif" font-size="11.00" fill="#000000"> &#160;</text>
<polygon fill="#ffffff" stroke="transparent" points="315,-47.2 315,-66.2 364,-66.2 364,-47.2 315,-47.2"/>
<polygon fill="none" stroke="#000000" points="315,-47.2 315,-66.2 364,-66.2 364,-47.2 315,-47.2"/>
<text text-anchor="start" x="339.2904" y="-53.3" font-family="Helvetica,sans-Serif" font-size="11.00" fill="#000000">30 &gt;</text>
</a>
</g>
</g>
<!-- config_definitions&#45;&gt;entities -->
<g id="edge1" class="edge">
<title>config_definitions:w&#45;&gt;entities:e</title>
<path fill="none" stroke="#000000" d="M401.0173,-309.544C388.5511,-304.537 382.3744,-294.2 364,-294.2"/>
<polygon fill="#000000" stroke="#000000" points="407.6312,-310.7569 414.8506,-315.7409 411.5656,-311.4785 415.5,-312.2 415.5,-312.2 415.5,-312.2 411.5656,-311.4785 416.1494,-308.6591 407.6312,-310.7569 407.6312,-310.7569"/>
<ellipse fill="none" stroke="#000000" cx="404.4837" cy="-310.1797" rx="3.2" ry="3.2"/>
</g>
<!-- tenants -->
<g id="node3" class="node">
<title>tenants</title>
<g id="a_node3"><a xlink:href="../../tables/tenants.html" xlink:title="tenants" target="_top">
<polygon fill="#ffffff" stroke="transparent" points="8,-153.7 8,-346.7 167,-346.7 167,-153.7 8,-153.7"/>
<polygon fill="#f5f5f5" stroke="transparent" points="8.5,-323.2 8.5,-346.2 167.5,-346.2 167.5,-323.2 8.5,-323.2"/>
<polygon fill="none" stroke="#000000" points="8.5,-323.2 8.5,-346.2 167.5,-346.2 167.5,-323.2 8.5,-323.2"/>
<text text-anchor="start" x="13.5" y="-331.8" font-family="Helvetica,sans-Serif" font-weight="bold" font-size="11.00" fill="#000000">tenants</text>
<text text-anchor="start" x="132.5437" y="-331.3" font-family="Helvetica,sans-Serif" font-size="11.00" fill="#000000">[table]</text>
<polygon fill="none" stroke="#000000" points="8.5,-301.2 8.5,-323.2 167.5,-323.2 167.5,-301.2 8.5,-301.2"/>
<image xlink:href="../../images/primaryKeys.png" width="11px" height="12px" preserveAspectRatio="xMinYMin meet" x="13.5" y="-318.2"/>
<text text-anchor="start" x="28.5" y="-308.3" font-family="Helvetica,sans-Serif" font-size="11.00" fill="#000000">id</text>
<polygon fill="#ffffff" stroke="transparent" points="8.5,-279.2 8.5,-301.2 167.5,-301.2 167.5,-279.2 8.5,-279.2"/>
<polygon fill="none" stroke="#000000" points="8.5,-279.2 8.5,-301.2 167.5,-301.2 167.5,-279.2 8.5,-279.2"/>
<text text-anchor="start" x="28.5" y="-286.3" font-family="Helvetica,sans-Serif" font-size="11.00" fill="#000000">slug</text>
<polygon fill="#ffffff" stroke="transparent" points="8.5,-257.2 8.5,-279.2 167.5,-279.2 167.5,-257.2 8.5,-257.2"/>
<polygon fill="none" stroke="#000000" points="8.5,-257.2 8.5,-279.2 167.5,-279.2 167.5,-257.2 8.5,-257.2"/>
<text text-anchor="start" x="28.5" y="-264.3" font-family="Helvetica,sans-Serif" font-size="11.00" fill="#000000">name</text>
<polygon fill="#ffffff" stroke="transparent" points="8.5,-235.2 8.5,-257.2 167.5,-257.2 167.5,-235.2 8.5,-235.2"/>
<polygon fill="none" stroke="#000000" points="8.5,-235.2 8.5,-257.2 167.5,-257.2 167.5,-235.2 8.5,-235.2"/>
<text text-anchor="start" x="28.5" y="-242.3" font-family="Helvetica,sans-Serif" font-size="11.00" fill="#000000">subdomain</text>
<polygon fill="#ffffff" stroke="transparent" points="8.5,-213.2 8.5,-235.2 167.5,-235.2 167.5,-213.2 8.5,-213.2"/>
<polygon fill="none" stroke="#000000" points="8.5,-213.2 8.5,-235.2 167.5,-235.2 167.5,-213.2 8.5,-213.2"/>
<text text-anchor="start" x="28.5" y="-220.3" font-family="Helvetica,sans-Serif" font-size="11.00" fill="#000000">status</text>
<polygon fill="#ffffff" stroke="transparent" points="8.5,-191.2 8.5,-213.2 167.5,-213.2 167.5,-191.2 8.5,-191.2"/>
<polygon fill="none" stroke="#000000" points="8.5,-191.2 8.5,-213.2 167.5,-213.2 167.5,-191.2 8.5,-191.2"/>
<text text-anchor="start" x="28.5" y="-198.3" font-family="Helvetica,sans-Serif" font-size="11.00" fill="#000000">deleted_at</text>
<polygon fill="none" stroke="#000000" points="8.5,-172.2 8.5,-191.2 167.5,-191.2 167.5,-172.2 8.5,-172.2"/>
<text text-anchor="start" x="11.5" y="-178.3" font-family="Helvetica,sans-Serif" font-size="11.00" fill="#000000">...</text>
<polygon fill="#ffffff" stroke="transparent" points="8.5,-153.2 8.5,-172.2 74.5,-172.2 74.5,-153.2 8.5,-153.2"/>
<polygon fill="none" stroke="#000000" points="8.5,-153.2 8.5,-172.2 74.5,-172.2 74.5,-153.2 8.5,-153.2"/>
<text text-anchor="start" x="11.5" y="-159.3" font-family="Helvetica,sans-Serif" font-size="11.00" fill="#000000"> &#160;</text>
<polygon fill="#ffffff" stroke="transparent" points="74.5,-153.2 74.5,-172.2 113.5,-172.2 113.5,-153.2 74.5,-153.2"/>
<polygon fill="none" stroke="#000000" points="74.5,-153.2 74.5,-172.2 113.5,-172.2 113.5,-153.2 74.5,-153.2"/>
<text text-anchor="start" x="104.3862" y="-159.3" font-family="Helvetica,sans-Serif" font-size="11.00" fill="#000000"> &#160;</text>
<polygon fill="#ffffff" stroke="transparent" points="113.5,-153.2 113.5,-172.2 167.5,-172.2 167.5,-153.2 113.5,-153.2"/>
<polygon fill="none" stroke="#000000" points="113.5,-153.2 113.5,-172.2 167.5,-172.2 167.5,-153.2 113.5,-153.2"/>
<text text-anchor="start" x="142.7904" y="-159.3" font-family="Helvetica,sans-Serif" font-size="11.00" fill="#000000">37 &gt;</text>
</a>
</g>
</g>
<!-- config_definitions&#45;&gt;tenants -->
<g id="edge2" class="edge">
<title>config_definitions:w&#45;&gt;tenants:e</title>
<path fill="none" stroke="#000000" d="M401.0084,-335.0941C391.8542,-336.3111 385.5091,-338.4262 372,-339.2 299.2304,-343.3684 277.7614,-360.322 208,-339.2 187.2949,-332.931 189.1333,-312.2 167.5,-312.2"/>
<polygon fill="#000000" stroke="#000000" points="407.5152,-334.6927 415.7217,-337.7932 411.5076,-334.4464 415.5,-334.2 415.5,-334.2 415.5,-334.2 411.5076,-334.4464 415.2783,-330.6068 407.5152,-334.6927 407.5152,-334.6927"/>
<ellipse fill="none" stroke="#000000" cx="404.3213" cy="-334.8898" rx="3.2" ry="3.2"/>
</g>
<!-- entities&#45;&gt;tenants -->
<g id="edge3" class="edge">
<title>entities:w&#45;&gt;tenants:e</title>
<path fill="none" stroke="#000000" d="M201.9951,-277.1048C189.5984,-287.7859 189.3288,-312.2 167.5,-312.2"/>
<polygon fill="#000000" stroke="#000000" points="208.4496,-274.8443 217.1899,-275.5977 212.2248,-273.5222 216,-272.2 216,-272.2 216,-272.2 212.2248,-273.5222 214.8101,-268.8023 208.4496,-274.8443 208.4496,-274.8443"/>
<ellipse fill="none" stroke="#000000" cx="205.4295" cy="-275.902" rx="3.2" ry="3.2"/>
</g>
</g>
</svg>
