<?xml version="1.0" encoding="UTF-8" standalone="no"?>
<!DOCTYPE svg PUBLIC "-//W3C//DTD SVG 1.1//EN"
 "http://www.w3.org/Graphics/SVG/1.1/DTD/svg11.dtd">
<!-- Generated by graphviz version 2.40.1 (20161225.0304)
 -->
<!-- Title: oneDegreeRelationshipsDiagram Pages: 1 -->
<svg width="491pt" height="523pt"
 viewBox="0.00 0.00 491.00 523.20" xmlns="http://www.w3.org/2000/svg" xmlns:xlink="http://www.w3.org/1999/xlink">
<g id="graph0" class="graph" transform="scale(1 1) rotate(0) translate(4 519.2)">
<title>oneDegreeRelationshipsDiagram</title>
<polygon fill="#ffffff" stroke="transparent" points="-4,4 -4,-519.2 487,-519.2 487,4 -4,4"/>
<text text-anchor="middle" x="72.4936" y="-7.3" font-family="Helvetica,sans-Serif" font-size="11.00" fill="#000000">Generated by SchemaSpy</text>
<!-- policy_decisions -->
<g id="node1" class="node">
<title>policy_decisions</title>
<g id="a_node1"><a xlink:href="../../tables/policy_decisions.html" xlink:title="policy_decisions" target="_top">
<polygon fill="#ffffff" stroke="transparent" points="220,-161.7 220,-405.7 475,-405.7 475,-161.7 220,-161.7"/>
<polygon fill="#f5f5f5" stroke="transparent" points="222.5,-380.7 222.5,-403.7 473.5,-403.7 473.5,-380.7 222.5,-380.7"/>
<polygon fill="none" stroke="#000000" points="222.5,-380.7 222.5,-403.7 473.5,-403.7 473.5,-380.7 222.5,-380.7"/>
<text text-anchor="start" x="227.5" y="-389.3" font-family="Helvetica,sans-Serif" font-weight="bold" font-size="11.00" fill="#000000">policy_decisions</text>
<text text-anchor="start" x="438.5437" y="-388.8" font-family="Helvetica,sans-Serif" font-size="11.00" fill="#000000">[table]</text>
<polygon fill="none" stroke="#000000" points="222.5,-358.7 222.5,-380.7 379.5,-380.7 379.5,-358.7 222.5,-358.7"/>
<image xlink:href="../../images/primaryKeys.png" width="11px" height="12px" preserveAspectRatio="xMinYMin meet" x="227.5" y="-375.7"/>
<text text-anchor="start" x="242.5" y="-365.8" font-family="Helvetica,sans-Serif" font-size="11.00" fill="#000000">id</text>
<polygon fill="none" stroke="#000000" points="379.5,-358.7 379.5,-380.7 473.5,-380.7 473.5,-358.7 379.5,-358.7"/>
<text text-anchor="start" x="382.4758" y="-366.4" font-family="Helvetica,sans-Serif" font-size="11.00" fill="#000000">uuid[2147483647]</text>
<polygon fill="#ffffff" stroke="transparent" points="222.5,-336.7 222.5,-358.7 379.5,-358.7 379.5,-336.7 222.5,-336.7"/>
<polygon fill="none" stroke="#000000" points="222.5,-336.7 222.5,-358.7 379.5,-358.7 379.5,-336.7 222.5,-336.7"/>
<image xlink:href="../../images/foreignKeys.png" width="11px" height="12px" preserveAspectRatio="xMinYMin meet" x="227.5" y="-353.7"/>
<text text-anchor="start" x="242.5" y="-343.8" font-family="Helvetica,sans-Serif" font-size="11.00" fill="#000000">policy_evaluation_id</text>
<polygon fill="none" stroke="#000000" points="379.5,-336.7 379.5,-358.7 473.5,-358.7 473.5,-336.7 379.5,-336.7"/>
<text text-anchor="start" x="382.4758" y="-344.4" font-family="Helvetica,sans-Serif" font-size="11.00" fill="#000000">uuid[2147483647]</text>
<polygon fill="#ffffff" stroke="transparent" points="222.5,-314.7 222.5,-336.7 379.5,-336.7 379.5,-314.7 222.5,-314.7"/>
<polygon fill="none" stroke="#000000" points="222.5,-314.7 222.5,-336.7 379.5,-336.7 379.5,-314.7 222.5,-314.7"/>
<image xlink:href="../../images/foreignKeys.png" width="11px" height="12px" preserveAspectRatio="xMinYMin meet" x="227.5" y="-331.7"/>
<text text-anchor="start" x="242.5" y="-321.8" font-family="Helvetica,sans-Serif" font-size="11.00" fill="#000000">policy_id</text>
<polygon fill="none" stroke="#000000" points="379.5,-314.7 379.5,-336.7 473.5,-336.7 473.5,-314.7 379.5,-314.7"/>
<text text-anchor="start" x="382.4758" y="-322.4" font-family="Helvetica,sans-Serif" font-size="11.00" fill="#000000">uuid[2147483647]</text>
<polygon fill="none" stroke="#000000" points="222.5,-292.7 222.5,-314.7 379.5,-314.7 379.5,-292.7 222.5,-292.7"/>
<text text-anchor="start" x="242.5" y="-299.8" font-family="Helvetica,sans-Serif" font-size="11.00" fill="#000000">decision</text>
<polygon fill="none" stroke="#000000" points="379.5,-292.7 379.5,-314.7 473.5,-314.7 473.5,-292.7 379.5,-292.7"/>
<text text-anchor="start" x="382.5" y="-300.4" font-family="Helvetica,sans-Serif" font-size="11.00" fill="#000000">varchar[20]</text>
<polygon fill="none" stroke="#000000" points="222.5,-270.7 222.5,-292.7 379.5,-292.7 379.5,-270.7 222.5,-270.7"/>
<text text-anchor="start" x="242.5" y="-277.8" font-family="Helvetica,sans-Serif" font-size="11.00" fill="#000000">reason</text>
<polygon fill="none" stroke="#000000" points="379.5,-270.7 379.5,-292.7 473.5,-292.7 473.5,-270.7 379.5,-270.7"/>
<text text-anchor="start" x="382.5" y="-278.4" font-family="Helvetica,sans-Serif" font-size="11.00" fill="#000000">text[2147483647]</text>
<polygon fill="none" stroke="#000000" points="222.5,-248.7 222.5,-270.7 379.5,-270.7 379.5,-248.7 222.5,-248.7"/>
<text text-anchor="start" x="242.5" y="-255.8" font-family="Helvetica,sans-Serif" font-size="11.00" fill="#000000">matched_rule</text>
<polygon fill="none" stroke="#000000" points="379.5,-248.7 379.5,-270.7 473.5,-270.7 473.5,-248.7 379.5,-248.7"/>
<text text-anchor="start" x="382.5" y="-256.4" font-family="Helvetica,sans-Serif" font-size="11.00" fill="#000000">text[2147483647]</text>
<polygon fill="none" stroke="#000000" points="222.5,-226.7 222.5,-248.7 379.5,-248.7 379.5,-226.7 222.5,-226.7"/>
<text text-anchor="start" x="242.5" y="-233.8" font-family="Helvetica,sans-Serif" font-size="11.00" fill="#000000">evaluation_ms</text>
<polygon fill="none" stroke="#000000" points="379.5,-226.7 379.5,-248.7 473.5,-248.7 473.5,-226.7 379.5,-226.7"/>
<text text-anchor="start" x="382.5" y="-234.4" font-family="Helvetica,sans-Serif" font-size="11.00" fill="#000000">int8[19]</text>
<polygon fill="none" stroke="#000000" points="222.5,-204.7 222.5,-226.7 379.5,-226.7 379.5,-204.7 222.5,-204.7"/>
<text text-anchor="start" x="242.5" y="-211.8" font-family="Helvetica,sans-Serif" font-size="11.00" fill="#000000">target_matched</text>
<polygon fill="none" stroke="#000000" points="379.5,-204.7 379.5,-226.7 473.5,-226.7 473.5,-204.7 379.5,-204.7"/>
<text text-anchor="start" x="382.5" y="-212.4" font-family="Helvetica,sans-Serif" font-size="11.00" fill="#000000">bool[1]</text>
<polygon fill="none" stroke="#000000" points="222.5,-182.7 222.5,-204.7 379.5,-204.7 379.5,-182.7 222.5,-182.7"/>
<text text-anchor="start" x="242.5" y="-189.8" font-family="Helvetica,sans-Serif" font-size="11.00" fill="#000000">created_at</text>
<polygon fill="none" stroke="#000000" points="379.5,-182.7 379.5,-204.7 473.5,-204.7 473.5,-182.7 379.5,-182.7"/>
<text text-anchor="start" x="382.5" y="-190.4" font-family="Helvetica,sans-Serif" font-size="11.00" fill="#000000">timestamptz[35,6]</text>
<polygon fill="#ffffff" stroke="transparent" points="222.5,-163.7 222.5,-182.7 305.5,-182.7 305.5,-163.7 222.5,-163.7"/>
<polygon fill="none" stroke="#000000" points="222.5,-163.7 222.5,-182.7 305.5,-182.7 305.5,-163.7 222.5,-163.7"/>
<text text-anchor="start" x="225.5" y="-169.8" font-family="Helvetica,sans-Serif" font-size="11.00" fill="#000000">&lt; 2</text>
<polygon fill="#ffffff" stroke="transparent" points="305.5,-163.7 305.5,-182.7 379.5,-182.7 379.5,-163.7 305.5,-163.7"/>
<polygon fill="none" stroke="#000000" points="305.5,-163.7 305.5,-182.7 379.5,-182.7 379.5,-163.7 305.5,-163.7"/>
<text text-anchor="start" x="370.3862" y="-169.8" font-family="Helvetica,sans-Serif" font-size="11.00" fill="#000000"> &#160;</text>
<polygon fill="#ffffff" stroke="transparent" points="379.5,-163.7 379.5,-182.7 473.5,-182.7 473.5,-163.7 379.5,-163.7"/>
<polygon fill="none" stroke="#000000" points="379.5,-163.7 379.5,-182.7 473.5,-182.7 473.5,-163.7 379.5,-163.7"/>
<text text-anchor="start" x="454.9053" y="-169.8" font-family="Helvetica,sans-Serif" font-size="11.00" fill="#000000">0 &gt;</text>
<polygon fill="none" stroke="#000000" stroke-width="2" points="221,-162.7 221,-404.7 474,-404.7 474,-162.7 221,-162.7"/>
</a>
</g>
</g>
<!-- policy_evaluations -->
<g id="node2" class="node">
<title>policy_evaluations</title>
<g id="a_node2"><a xlink:href="../../tables/policy_evaluations.html" xlink:title="policy_evaluations" target="_top">
<polygon fill="#ffffff" stroke="transparent" points="8,-252.2 8,-511.2 171,-511.2 171,-252.2 8,-252.2"/>
<polygon fill="#f5f5f5" stroke="transparent" points="8.5,-487.7 8.5,-510.7 171.5,-510.7 171.5,-487.7 8.5,-487.7"/>
<polygon fill="none" stroke="#000000" points="8.5,-487.7 8.5,-510.7 171.5,-510.7 171.5,-487.7 8.5,-487.7"/>
<text text-anchor="start" x="13.5" y="-496.3" font-family="Helvetica,sans-Serif" font-weight="bold" font-size="11.00" fill="#000000">policy_evaluations</text>
<text text-anchor="start" x="137.0219" y="-495.8" font-family="Helvetica,sans-Serif" font-size="11.00" fill="#000000">[table]</text>
<polygon fill="none" stroke="#000000" points="8.5,-465.7 8.5,-487.7 171.5,-487.7 171.5,-465.7 8.5,-465.7"/>
<image xlink:href="../../images/primaryKeys.png" width="11px" height="12px" preserveAspectRatio="xMinYMin meet" x="13.5" y="-482.7"/>
<text text-anchor="start" x="33.5" y="-472.8" font-family="Helvetica,sans-Serif" font-size="11.00" fill="#000000">id</text>
<polygon fill="#ffffff" stroke="transparent" points="8.5,-443.7 8.5,-465.7 171.5,-465.7 171.5,-443.7 8.5,-443.7"/>
<polygon fill="none" stroke="#000000" points="8.5,-443.7 8.5,-465.7 171.5,-465.7 171.5,-443.7 8.5,-443.7"/>
<image xlink:href="../../images/foreignKeys.png" width="11px" height="12px" preserveAspectRatio="xMinYMin meet" x="13.5" y="-460.7"/>
<text text-anchor="start" x="33.5" y="-450.8" font-family="Helvetica,sans-Serif" font-size="11.00" fill="#000000">tenant_id</text>
<polygon fill="#ffffff" stroke="transparent" points="8.5,-421.7 8.5,-443.7 171.5,-443.7 171.5,-421.7 8.5,-421.7"/>
<polygon fill="none" stroke="#000000" points="8.5,-421.7 8.5,-443.7 171.5,-443.7 171.5,-421.7 8.5,-421.7"/>
<image xlink:href="../../images/foreignKeys.png" width="11px" height="12px" preserveAspectRatio="xMinYMin meet" x="13.5" y="-438.7"/>
<text text-anchor="start" x="33.5" y="-428.8" font-family="Helvetica,sans-Serif" font-size="11.00" fill="#000000">user_id</text>
<polygon fill="#ffffff" stroke="transparent" points="8.5,-399.7 8.5,-421.7 171.5,-421.7 171.5,-399.7 8.5,-399.7"/>
<polygon fill="none" stroke="#000000" points="8.5,-399.7 8.5,-421.7 171.5,-421.7 171.5,-399.7 8.5,-399.7"/>
<text text-anchor="start" x="33.5" y="-406.8" font-family="Helvetica,sans-Serif" font-size="11.00" fill="#000000">resource_type</text>
<polygon fill="#ffffff" stroke="transparent" points="8.5,-377.7 8.5,-399.7 171.5,-399.7 171.5,-377.7 8.5,-377.7"/>
<polygon fill="none" stroke="#000000" points="8.5,-377.7 8.5,-399.7 171.5,-399.7 171.5,-377.7 8.5,-377.7"/>
<text text-anchor="start" x="33.5" y="-384.8" font-family="Helvetica,sans-Serif" font-size="11.00" fill="#000000">resource_id</text>
<polygon fill="#ffffff" stroke="transparent" points="8.5,-355.7 8.5,-377.7 171.5,-377.7 171.5,-355.7 8.5,-355.7"/>
<polygon fill="none" stroke="#000000" points="8.5,-355.7 8.5,-377.7 171.5,-377.7 171.5,-355.7 8.5,-355.7"/>
<text text-anchor="start" x="33.5" y="-362.8" font-family="Helvetica,sans-Serif" font-size="11.00" fill="#000000">action</text>
<polygon fill="none" stroke="#000000" points="8.5,-333.7 8.5,-355.7 171.5,-355.7 171.5,-333.7 8.5,-333.7"/>
<image xlink:href="../../images/foreignKeys.png" width="11px" height="12px" preserveAspectRatio="xMinYMin meet" x="13.5" y="-350.7"/>
<text text-anchor="start" x="33.5" y="-340.8" font-family="Helvetica,sans-Serif" font-size="11.00" fill="#000000">entity_id</text>
<polygon fill="#ffffff" stroke="transparent" points="8.5,-311.7 8.5,-333.7 171.5,-333.7 171.5,-311.7 8.5,-311.7"/>
<polygon fill="none" stroke="#000000" points="8.5,-311.7 8.5,-333.7 171.5,-333.7 171.5,-311.7 8.5,-311.7"/>
<text text-anchor="start" x="33.5" y="-318.8" font-family="Helvetica,sans-Serif" font-size="11.00" fill="#000000">context_hash</text>
<polygon fill="#ffffff" stroke="transparent" points="8.5,-289.7 8.5,-311.7 171.5,-311.7 171.5,-289.7 8.5,-289.7"/>
<polygon fill="none" stroke="#000000" points="8.5,-289.7 8.5,-311.7 171.5,-311.7 171.5,-289.7 8.5,-289.7"/>
<text text-anchor="start" x="33.5" y="-296.8" font-family="Helvetica,sans-Serif" font-size="11.00" fill="#000000">expires_at</text>
<polygon fill="none" stroke="#000000" points="8.5,-270.7 8.5,-289.7 171.5,-289.7 171.5,-270.7 8.5,-270.7"/>
<text text-anchor="start" x="11.5" y="-276.8" font-family="Helvetica,sans-Serif" font-size="11.00" fill="#000000">...</text>
<polygon fill="#ffffff" stroke="transparent" points="8.5,-251.7 8.5,-270.7 83.5,-270.7 83.5,-251.7 8.5,-251.7"/>
<polygon fill="none" stroke="#000000" points="8.5,-251.7 8.5,-270.7 83.5,-270.7 83.5,-251.7 8.5,-251.7"/>
<text text-anchor="start" x="11.5" y="-257.8" font-family="Helvetica,sans-Serif" font-size="11.00" fill="#000000">&lt; 3</text>
<polygon fill="#ffffff" stroke="transparent" points="83.5,-251.7 83.5,-270.7 122.5,-270.7 122.5,-251.7 83.5,-251.7"/>
<polygon fill="none" stroke="#000000" points="83.5,-251.7 83.5,-270.7 122.5,-270.7 122.5,-251.7 83.5,-251.7"/>
<text text-anchor="start" x="113.3862" y="-257.8" font-family="Helvetica,sans-Serif" font-size="11.00" fill="#000000"> &#160;</text>
<polygon fill="#ffffff" stroke="transparent" points="122.5,-251.7 122.5,-270.7 171.5,-270.7 171.5,-251.7 122.5,-251.7"/>
<polygon fill="none" stroke="#000000" points="122.5,-251.7 122.5,-270.7 171.5,-270.7 171.5,-251.7 122.5,-251.7"/>
<text text-anchor="start" x="152.9053" y="-257.8" font-family="Helvetica,sans-Serif" font-size="11.00" fill="#000000">1 &gt;</text>
</a>
</g>
</g>
<!-- policy_decisions&#45;&gt;policy_evaluations -->
<g id="edge1" class="edge">
<title>policy_decisions:w&#45;&gt;policy_evaluations:e</title>
<path fill="none" stroke="#000000" d="M208.021,-351.1504C173.6928,-371.6651 227.1307,-476.7 171.5,-476.7"/>
<polygon fill="#000000" stroke="#000000" points="214.7179,-349.5546 223.3346,-351.2019 218.609,-348.6273 222.5,-347.7 222.5,-347.7 222.5,-347.7 218.609,-348.6273 221.6654,-344.1981 214.7179,-349.5546 214.7179,-349.5546"/>
<ellipse fill="none" stroke="#000000" cx="211.6051" cy="-350.2964" rx="3.2" ry="3.2"/>
</g>
<!-- policies -->
<g id="node3" class="node">
<title>policies</title>
<g id="a_node3"><a xlink:href="../../tables/policies.html" xlink:title="policies" target="_top">
<polygon fill="#ffffff" stroke="transparent" points="33.5,-38.2 33.5,-231.2 145.5,-231.2 145.5,-38.2 33.5,-38.2"/>
<polygon fill="#f5f5f5" stroke="transparent" points="33.5,-207.7 33.5,-230.7 145.5,-230.7 145.5,-207.7 33.5,-207.7"/>
<polygon fill="none" stroke="#000000" points="33.5,-207.7 33.5,-230.7 145.5,-230.7 145.5,-207.7 33.5,-207.7"/>
<text text-anchor="start" x="38.5" y="-216.3" font-family="Helvetica,sans-Serif" font-weight="bold" font-size="11.00" fill="#000000">policies</text>
<text text-anchor="start" x="110.5437" y="-215.8" font-family="Helvetica,sans-Serif" font-size="11.00" fill="#000000">[table]</text>
<polygon fill="none" stroke="#000000" points="33.5,-185.7 33.5,-207.7 145.5,-207.7 145.5,-185.7 33.5,-185.7"/>
<image xlink:href="../../images/primaryKeys.png" width="11px" height="12px" preserveAspectRatio="xMinYMin meet" x="38.5" y="-202.7"/>
<text text-anchor="start" x="53.5" y="-192.8" font-family="Helvetica,sans-Serif" font-size="11.00" fill="#000000">id</text>
<polygon fill="#ffffff" stroke="transparent" points="33.5,-163.7 33.5,-185.7 145.5,-185.7 145.5,-163.7 33.5,-163.7"/>
<polygon fill="none" stroke="#000000" points="33.5,-163.7 33.5,-185.7 145.5,-185.7 145.5,-163.7 33.5,-163.7"/>
<image xlink:href="../../images/foreignKeys.png" width="11px" height="12px" preserveAspectRatio="xMinYMin meet" x="38.5" y="-180.7"/>
<text text-anchor="start" x="53.5" y="-170.8" font-family="Helvetica,sans-Serif" font-size="11.00" fill="#000000">tenant_id</text>
<polygon fill="none" stroke="#000000" points="33.5,-141.7 33.5,-163.7 145.5,-163.7 145.5,-141.7 33.5,-141.7"/>
<image xlink:href="../../images/foreignKeys.png" width="11px" height="12px" preserveAspectRatio="xMinYMin meet" x="38.5" y="-158.7"/>
<text text-anchor="start" x="53.5" y="-148.8" font-family="Helvetica,sans-Serif" font-size="11.00" fill="#000000">entity_id</text>
<polygon fill="#ffffff" stroke="transparent" points="33.5,-119.7 33.5,-141.7 145.5,-141.7 145.5,-119.7 33.5,-119.7"/>
<polygon fill="none" stroke="#000000" points="33.5,-119.7 33.5,-141.7 145.5,-141.7 145.5,-119.7 33.5,-119.7"/>
<text text-anchor="start" x="53.5" y="-126.8" font-family="Helvetica,sans-Serif" font-size="11.00" fill="#000000">name</text>
<polygon fill="#ffffff" stroke="transparent" points="33.5,-97.7 33.5,-119.7 145.5,-119.7 145.5,-97.7 33.5,-97.7"/>
<polygon fill="none" stroke="#000000" points="33.5,-97.7 33.5,-119.7 145.5,-119.7 145.5,-97.7 33.5,-97.7"/>
<text text-anchor="start" x="53.5" y="-104.8" font-family="Helvetica,sans-Serif" font-size="11.00" fill="#000000">rule</text>
<polygon fill="none" stroke="#000000" points="33.5,-75.7 33.5,-97.7 145.5,-97.7 145.5,-75.7 33.5,-75.7"/>
<image xlink:href="../../images/foreignKeys.png" width="11px" height="12px" preserveAspectRatio="xMinYMin meet" x="38.5" y="-92.7"/>
<text text-anchor="start" x="53.5" y="-82.8" font-family="Helvetica,sans-Serif" font-size="11.00" fill="#000000">created_by</text>
<polygon fill="none" stroke="#000000" points="33.5,-56.7 33.5,-75.7 145.5,-75.7 145.5,-56.7 33.5,-56.7"/>
<text text-anchor="start" x="36.5" y="-62.8" font-family="Helvetica,sans-Serif" font-size="11.00" fill="#000000">...</text>
<polygon fill="#ffffff" stroke="transparent" points="33.5,-37.7 33.5,-56.7 83.5,-56.7 83.5,-37.7 33.5,-37.7"/>
<polygon fill="none" stroke="#000000" points="33.5,-37.7 33.5,-56.7 83.5,-56.7 83.5,-37.7 33.5,-37.7"/>
<text text-anchor="start" x="36.5" y="-43.8" font-family="Helvetica,sans-Serif" font-size="11.00" fill="#000000">&lt; 3</text>
<polygon fill="#ffffff" stroke="transparent" points="83.5,-37.7 83.5,-56.7 109.5,-56.7 109.5,-37.7 83.5,-37.7"/>
<polygon fill="none" stroke="#000000" points="83.5,-37.7 83.5,-56.7 109.5,-56.7 109.5,-37.7 83.5,-37.7"/>
<text text-anchor="start" x="100.3862" y="-43.8" font-family="Helvetica,sans-Serif" font-size="11.00" fill="#000000"> &#160;</text>
<polygon fill="#ffffff" stroke="transparent" points="109.5,-37.7 109.5,-56.7 145.5,-56.7 145.5,-37.7 109.5,-37.7"/>
<polygon fill="none" stroke="#000000" points="109.5,-37.7 109.5,-56.7 145.5,-56.7 145.5,-37.7 109.5,-37.7"/>
<text text-anchor="start" x="126.9053" y="-43.8" font-family="Helvetica,sans-Serif" font-size="11.00" fill="#000000">1 &gt;</text>
</a>
</g>
</g>
<!-- policy_decisions&#45;&gt;policies -->
<g id="edge2" class="edge">
<title>policy_decisions:w&#45;&gt;policies:e</title>
<path fill="none" stroke="#000000" d="M208.1402,-323.1232C164.357,-304.9419 206.6626,-196.7 145.5,-196.7"/>
<polygon fill="#000000" stroke="#000000" points="214.6258,-324.2869 221.8641,-329.2434 218.5629,-324.9935 222.5,-325.7 222.5,-325.7 222.5,-325.7 218.5629,-324.9935 223.1359,-322.1566 214.6258,-324.2869 214.6258,-324.2869"/>
<ellipse fill="none" stroke="#000000" cx="211.4761" cy="-323.7217" rx="3.2" ry="3.2"/>
</g>
</g>
</svg>
