<?xml version="1.0" encoding="UTF-8" standalone="no"?>
<!DOCTYPE svg PUBLIC "-//W3C//DTD SVG 1.1//EN"
 "http://www.w3.org/Graphics/SVG/1.1/DTD/svg11.dtd">
<!-- Generated by graphviz version 2.40.1 (20161225.0304)
 -->
<!-- Title: oneDegreeRelationshipsDiagram Pages: 1 -->
<svg width="920pt" height="458pt"
 viewBox="0.00 0.00 920.00 457.70" xmlns="http://www.w3.org/2000/svg" xmlns:xlink="http://www.w3.org/1999/xlink">
<g id="graph0" class="graph" transform="scale(1 1) rotate(0) translate(4 453.7)">
<title>oneDegreeRelationshipsDiagram</title>
<polygon fill="#ffffff" stroke="transparent" points="-4,4 -4,-453.7 916,-453.7 916,4 -4,4"/>
<text text-anchor="middle" x="72.4936" y="-7.3" font-family="Helvetica,sans-Serif" font-size="11.00" fill="#000000">Generated by SchemaSpy</text>
<!-- entities -->
<g id="node1" class="node">
<title>entities</title>
<g id="a_node1"><a xlink:href="../../tables/entities.html" xlink:title="entities" target="_top">
<polygon fill="#ffffff" stroke="transparent" points="216,-103.2 216,-384.2 364,-384.2 364,-103.2 216,-103.2"/>
<polygon fill="#f5f5f5" stroke="transparent" points="216,-360.7 216,-383.7 364,-383.7 364,-360.7 216,-360.7"/>
<polygon fill="none" stroke="#000000" points="216,-360.7 216,-383.7 364,-383.7 364,-360.7 216,-360.7"/>
<text text-anchor="start" x="221" y="-369.3" font-family="Helvetica,sans-Serif" font-weight="bold" font-size="11.00" fill="#000000">entities</text>
<text text-anchor="start" x="329.0437" y="-368.8" font-family="Helvetica,sans-Serif" font-size="11.00" fill="#000000">[table]</text>
<polygon fill="none" stroke="#000000" points="216,-338.7 216,-360.7 364,-360.7 364,-338.7 216,-338.7"/>
<image xlink:href="../../images/primaryKeys.png" width="11px" height="12px" preserveAspectRatio="xMinYMin meet" x="221" y="-355.7"/>
<text text-anchor="start" x="236" y="-345.8" font-family="Helvetica,sans-Serif" font-size="11.00" fill="#000000">uuid</text>
<polygon fill="#ffffff" stroke="transparent" points="216,-316.7 216,-338.7 364,-338.7 364,-316.7 216,-316.7"/>
<polygon fill="none" stroke="#000000" points="216,-316.7 216,-338.7 364,-338.7 364,-316.7 216,-316.7"/>
<image xlink:href="../../images/foreignKeys.png" width="11px" height="12px" preserveAspectRatio="xMinYMin meet" x="221" y="-333.7"/>
<text text-anchor="start" x="236" y="-323.8" font-family="Helvetica,sans-Serif" font-size="11.00" fill="#000000">tenant_id</text>
<polygon fill="#ffffff" stroke="transparent" points="216,-294.7 216,-316.7 364,-316.7 364,-294.7 216,-294.7"/>
<polygon fill="none" stroke="#000000" points="216,-294.7 216,-316.7 364,-316.7 364,-294.7 216,-294.7"/>
<image xlink:href="../../images/foreignKeys.png" width="11px" height="12px" preserveAspectRatio="xMinYMin meet" x="221" y="-311.7"/>
<text text-anchor="start" x="236" y="-301.8" font-family="Helvetica,sans-Serif" font-size="11.00" fill="#000000">parent_id</text>
<polygon fill="#ffffff" stroke="transparent" points="216,-272.7 216,-294.7 364,-294.7 364,-272.7 216,-272.7"/>
<polygon fill="none" stroke="#000000" points="216,-272.7 216,-294.7 364,-294.7 364,-272.7 216,-272.7"/>
<text text-anchor="start" x="236" y="-279.8" font-family="Helvetica,sans-Serif" font-size="11.00" fill="#000000">name</text>
<polygon fill="#ffffff" stroke="transparent" points="216,-250.7 216,-272.7 364,-272.7 364,-250.7 216,-250.7"/>
<polygon fill="none" stroke="#000000" points="216,-250.7 216,-272.7 364,-272.7 364,-250.7 216,-250.7"/>
<text text-anchor="start" x="236" y="-257.8" font-family="Helvetica,sans-Serif" font-size="11.00" fill="#000000">code</text>
<polygon fill="#ffffff" stroke="transparent" points="216,-228.7 216,-250.7 364,-250.7 364,-228.7 216,-228.7"/>
<polygon fill="none" stroke="#000000" points="216,-228.7 216,-250.7 364,-250.7 364,-228.7 216,-228.7"/>
<text text-anchor="start" x="236" y="-235.8" font-family="Helvetica,sans-Serif" font-size="11.00" fill="#000000">type</text>
<polygon fill="#ffffff" stroke="transparent" points="216,-206.7 216,-228.7 364,-228.7 364,-206.7 216,-206.7"/>
<polygon fill="none" stroke="#000000" points="216,-206.7 216,-228.7 364,-228.7 364,-206.7 216,-206.7"/>
<text text-anchor="start" x="236" y="-213.8" font-family="Helvetica,sans-Serif" font-size="11.00" fill="#000000">is_active</text>
<polygon fill="#ffffff" stroke="transparent" points="216,-184.7 216,-206.7 364,-206.7 364,-184.7 216,-184.7"/>
<polygon fill="none" stroke="#000000" points="216,-184.7 216,-206.7 364,-206.7 364,-184.7 216,-184.7"/>
<text text-anchor="start" x="236" y="-191.8" font-family="Helvetica,sans-Serif" font-size="11.00" fill="#000000">address</text>
<polygon fill="#ffffff" stroke="transparent" points="216,-162.7 216,-184.7 364,-184.7 364,-162.7 216,-162.7"/>
<polygon fill="none" stroke="#000000" points="216,-162.7 216,-184.7 364,-184.7 364,-162.7 216,-162.7"/>
<text text-anchor="start" x="236" y="-169.8" font-family="Helvetica,sans-Serif" font-size="11.00" fill="#000000">settings</text>
<polygon fill="#ffffff" stroke="transparent" points="216,-140.7 216,-162.7 364,-162.7 364,-140.7 216,-140.7"/>
<polygon fill="none" stroke="#000000" points="216,-140.7 216,-162.7 364,-162.7 364,-140.7 216,-140.7"/>
<text text-anchor="start" x="236" y="-147.8" font-family="Helvetica,sans-Serif" font-size="11.00" fill="#000000">deleted_at</text>
<polygon fill="none" stroke="#000000" points="216,-121.7 216,-140.7 364,-140.7 364,-121.7 216,-121.7"/>
<text text-anchor="start" x="219" y="-127.8" font-family="Helvetica,sans-Serif" font-size="11.00" fill="#000000">...</text>
<polygon fill="#ffffff" stroke="transparent" points="216,-102.7 216,-121.7 281,-121.7 281,-102.7 216,-102.7"/>
<polygon fill="none" stroke="#000000" points="216,-102.7 216,-121.7 281,-121.7 281,-102.7 216,-102.7"/>
<text text-anchor="start" x="219" y="-108.8" font-family="Helvetica,sans-Serif" font-size="11.00" fill="#000000">&lt; 2</text>
<polygon fill="#ffffff" stroke="transparent" points="281,-102.7 281,-121.7 315,-121.7 315,-102.7 281,-102.7"/>
<polygon fill="none" stroke="#000000" points="281,-102.7 281,-121.7 315,-121.7 315,-102.7 281,-102.7"/>
<text text-anchor="start" x="305.8862" y="-108.8" font-family="Helvetica,sans-Serif" font-size="11.00" fill="#000000"> &#160;</text>
<polygon fill="#ffffff" stroke="transparent" points="315,-102.7 315,-121.7 364,-121.7 364,-102.7 315,-102.7"/>
<polygon fill="none" stroke="#000000" points="315,-102.7 315,-121.7 364,-121.7 364,-102.7 315,-102.7"/>
<text text-anchor="start" x="339.2904" y="-108.8" font-family="Helvetica,sans-Serif" font-size="11.00" fill="#000000">30 &gt;</text>
</a>
</g>
</g>
<!-- tenants -->
<g id="node2" class="node">
<title>tenants</title>
<g id="a_node2"><a xlink:href="../../tables/tenants.html" xlink:title="tenants" target="_top">
<polygon fill="#ffffff" stroke="transparent" points="8,-169.2 8,-362.2 167,-362.2 167,-169.2 8,-169.2"/>
<polygon fill="#f5f5f5" stroke="transparent" points="8.5,-338.7 8.5,-361.7 167.5,-361.7 167.5,-338.7 8.5,-338.7"/>
<polygon fill="none" stroke="#000000" points="8.5,-338.7 8.5,-361.7 167.5,-361.7 167.5,-338.7 8.5,-338.7"/>
<text text-anchor="start" x="13.5" y="-347.3" font-family="Helvetica,sans-Serif" font-weight="bold" font-size="11.00" fill="#000000">tenants</text>
<text text-anchor="start" x="132.5437" y="-346.8" font-family="Helvetica,sans-Serif" font-size="11.00" fill="#000000">[table]</text>
<polygon fill="none" stroke="#000000" points="8.5,-316.7 8.5,-338.7 167.5,-338.7 167.5,-316.7 8.5,-316.7"/>
<image xlink:href="../../images/primaryKeys.png" width="11px" height="12px" preserveAspectRatio="xMinYMin meet" x="13.5" y="-333.7"/>
<text text-anchor="start" x="28.5" y="-323.8" font-family="Helvetica,sans-Serif" font-size="11.00" fill="#000000">id</text>
<polygon fill="#ffffff" stroke="transparent" points="8.5,-294.7 8.5,-316.7 167.5,-316.7 167.5,-294.7 8.5,-294.7"/>
<polygon fill="none" stroke="#000000" points="8.5,-294.7 8.5,-316.7 167.5,-316.7 167.5,-294.7 8.5,-294.7"/>
<text text-anchor="start" x="28.5" y="-301.8" font-family="Helvetica,sans-Serif" font-size="11.00" fill="#000000">slug</text>
<polygon fill="#ffffff" stroke="transparent" points="8.5,-272.7 8.5,-294.7 167.5,-294.7 167.5,-272.7 8.5,-272.7"/>
<polygon fill="none" stroke="#000000" points="8.5,-272.7 8.5,-294.7 167.5,-294.7 167.5,-272.7 8.5,-272.7"/>
<text text-anchor="start" x="28.5" y="-279.8" font-family="Helvetica,sans-Serif" font-size="11.00" fill="#000000">name</text>
<polygon fill="#ffffff" stroke="transparent" points="8.5,-250.7 8.5,-272.7 167.5,-272.7 167.5,-250.7 8.5,-250.7"/>
<polygon fill="none" stroke="#000000" points="8.5,-250.7 8.5,-272.7 167.5,-272.7 167.5,-250.7 8.5,-250.7"/>
<text text-anchor="start" x="28.5" y="-257.8" font-family="Helvetica,sans-Serif" font-size="11.00" fill="#000000">subdomain</text>
<polygon fill="#ffffff" stroke="transparent" points="8.5,-228.7 8.5,-250.7 167.5,-250.7 167.5,-228.7 8.5,-228.7"/>
<polygon fill="none" stroke="#000000" points="8.5,-228.7 8.5,-250.7 167.5,-250.7 167.5,-228.7 8.5,-228.7"/>
<text text-anchor="start" x="28.5" y="-235.8" font-family="Helvetica,sans-Serif" font-size="11.00" fill="#000000">status</text>
<polygon fill="#ffffff" stroke="transparent" points="8.5,-206.7 8.5,-228.7 167.5,-228.7 167.5,-206.7 8.5,-206.7"/>
<polygon fill="none" stroke="#000000" points="8.5,-206.7 8.5,-228.7 167.5,-228.7 167.5,-206.7 8.5,-206.7"/>
<text text-anchor="start" x="28.5" y="-213.8" font-family="Helvetica,sans-Serif" font-size="11.00" fill="#000000">deleted_at</text>
<polygon fill="none" stroke="#000000" points="8.5,-187.7 8.5,-206.7 167.5,-206.7 167.5,-187.7 8.5,-187.7"/>
<text text-anchor="start" x="11.5" y="-193.8" font-family="Helvetica,sans-Serif" font-size="11.00" fill="#000000">...</text>
<polygon fill="#ffffff" stroke="transparent" points="8.5,-168.7 8.5,-187.7 74.5,-187.7 74.5,-168.7 8.5,-168.7"/>
<polygon fill="none" stroke="#000000" points="8.5,-168.7 8.5,-187.7 74.5,-187.7 74.5,-168.7 8.5,-168.7"/>
<text text-anchor="start" x="11.5" y="-174.8" font-family="Helvetica,sans-Serif" font-size="11.00" fill="#000000"> &#160;</text>
<polygon fill="#ffffff" stroke="transparent" points="74.5,-168.7 74.5,-187.7 113.5,-187.7 113.5,-168.7 74.5,-168.7"/>
<polygon fill="none" stroke="#000000" points="74.5,-168.7 74.5,-187.7 113.5,-187.7 113.5,-168.7 74.5,-168.7"/>
<text text-anchor="start" x="104.3862" y="-174.8" font-family="Helvetica,sans-Serif" font-size="11.00" fill="#000000"> &#160;</text>
<polygon fill="#ffffff" stroke="transparent" points="113.5,-168.7 113.5,-187.7 167.5,-187.7 167.5,-168.7 113.5,-168.7"/>
<polygon fill="none" stroke="#000000" points="113.5,-168.7 113.5,-187.7 167.5,-187.7 167.5,-168.7 113.5,-168.7"/>
<text text-anchor="start" x="142.7904" y="-174.8" font-family="Helvetica,sans-Serif" font-size="11.00" fill="#000000">37 &gt;</text>
</a>
</g>
</g>
<!-- entities&#45;&gt;tenants -->
<g id="edge1" class="edge">
<title>entities:w&#45;&gt;tenants:e</title>
<path fill="none" stroke="#000000" d="M201.2829,-327.7C190.2886,-327.7 183.1615,-327.7 167.5,-327.7"/>
<polygon fill="#000000" stroke="#000000" points="208,-327.7001 216,-331.3 212,-327.7 216,-327.7 216,-327.7 216,-327.7 212,-327.7 216,-324.1 208,-327.7001 208,-327.7001"/>
<ellipse fill="none" stroke="#000000" cx="204.8" cy="-327.7001" rx="3.2" ry="3.2"/>
</g>
<!-- feature_flags -->
<g id="node3" class="node">
<title>feature_flags</title>
<g id="a_node3"><a xlink:href="../../tables/feature_flags.html" xlink:title="feature_flags" target="_top">
<polygon fill="#ffffff" stroke="transparent" points="413,-38.2 413,-341.2 561,-341.2 561,-38.2 413,-38.2"/>
<polygon fill="#f5f5f5" stroke="transparent" points="413,-317.7 413,-340.7 561,-340.7 561,-317.7 413,-317.7"/>
<polygon fill="none" stroke="#000000" points="413,-317.7 413,-340.7 561,-340.7 561,-317.7 413,-317.7"/>
<text text-anchor="start" x="418" y="-326.3" font-family="Helvetica,sans-Serif" font-weight="bold" font-size="11.00" fill="#000000">feature_flags</text>
<text text-anchor="start" x="526.0437" y="-325.8" font-family="Helvetica,sans-Serif" font-size="11.00" fill="#000000">[table]</text>
<polygon fill="none" stroke="#000000" points="413,-295.7 413,-317.7 561,-317.7 561,-295.7 413,-295.7"/>
<image xlink:href="../../images/primaryKeys.png" width="11px" height="12px" preserveAspectRatio="xMinYMin meet" x="418" y="-312.7"/>
<text text-anchor="start" x="433" y="-302.8" font-family="Helvetica,sans-Serif" font-size="11.00" fill="#000000">id</text>
<polygon fill="#ffffff" stroke="transparent" points="413,-273.7 413,-295.7 561,-295.7 561,-273.7 413,-273.7"/>
<polygon fill="none" stroke="#000000" points="413,-273.7 413,-295.7 561,-295.7 561,-273.7 413,-273.7"/>
<image xlink:href="../../images/foreignKeys.png" width="11px" height="12px" preserveAspectRatio="xMinYMin meet" x="418" y="-290.7"/>
<text text-anchor="start" x="433" y="-280.8" font-family="Helvetica,sans-Serif" font-size="11.00" fill="#000000">tenant_id</text>
<polygon fill="none" stroke="#000000" points="413,-251.7 413,-273.7 561,-273.7 561,-251.7 413,-251.7"/>
<image xlink:href="../../images/foreignKeys.png" width="11px" height="12px" preserveAspectRatio="xMinYMin meet" x="418" y="-268.7"/>
<text text-anchor="start" x="433" y="-258.8" font-family="Helvetica,sans-Serif" font-size="11.00" fill="#000000">entity_id</text>
<polygon fill="#ffffff" stroke="transparent" points="413,-229.7 413,-251.7 561,-251.7 561,-229.7 413,-229.7"/>
<polygon fill="none" stroke="#000000" points="413,-229.7 413,-251.7 561,-251.7 561,-229.7 413,-229.7"/>
<text text-anchor="start" x="433" y="-236.8" font-family="Helvetica,sans-Serif" font-size="11.00" fill="#000000">name</text>
<polygon fill="#ffffff" stroke="transparent" points="413,-207.7 413,-229.7 561,-229.7 561,-207.7 413,-207.7"/>
<polygon fill="none" stroke="#000000" points="413,-207.7 413,-229.7 561,-229.7 561,-207.7 413,-207.7"/>
<text text-anchor="start" x="433" y="-214.8" font-family="Helvetica,sans-Serif" font-size="11.00" fill="#000000">flag_type</text>
<polygon fill="#ffffff" stroke="transparent" points="413,-185.7 413,-207.7 561,-207.7 561,-185.7 413,-185.7"/>
<polygon fill="none" stroke="#000000" points="413,-185.7 413,-207.7 561,-207.7 561,-185.7 413,-185.7"/>
<text text-anchor="start" x="433" y="-192.8" font-family="Helvetica,sans-Serif" font-size="11.00" fill="#000000">rollout_percentage</text>
<polygon fill="#ffffff" stroke="transparent" points="413,-163.7 413,-185.7 561,-185.7 561,-163.7 413,-163.7"/>
<polygon fill="none" stroke="#000000" points="413,-163.7 413,-185.7 561,-185.7 561,-163.7 413,-163.7"/>
<text text-anchor="start" x="433" y="-170.8" font-family="Helvetica,sans-Serif" font-size="11.00" fill="#000000">target_audience</text>
<polygon fill="#ffffff" stroke="transparent" points="413,-141.7 413,-163.7 561,-163.7 561,-141.7 413,-141.7"/>
<polygon fill="none" stroke="#000000" points="413,-141.7 413,-163.7 561,-163.7 561,-141.7 413,-141.7"/>
<text text-anchor="start" x="433" y="-148.8" font-family="Helvetica,sans-Serif" font-size="11.00" fill="#000000">metadata</text>
<polygon fill="#ffffff" stroke="transparent" points="413,-119.7 413,-141.7 561,-141.7 561,-119.7 413,-119.7"/>
<polygon fill="none" stroke="#000000" points="413,-119.7 413,-141.7 561,-141.7 561,-119.7 413,-119.7"/>
<text text-anchor="start" x="433" y="-126.8" font-family="Helvetica,sans-Serif" font-size="11.00" fill="#000000">created_at</text>
<polygon fill="#ffffff" stroke="transparent" points="413,-97.7 413,-119.7 561,-119.7 561,-97.7 413,-97.7"/>
<polygon fill="none" stroke="#000000" points="413,-97.7 413,-119.7 561,-119.7 561,-97.7 413,-97.7"/>
<text text-anchor="start" x="433" y="-104.8" font-family="Helvetica,sans-Serif" font-size="11.00" fill="#000000">updated_at</text>
<polygon fill="#ffffff" stroke="transparent" points="413,-75.7 413,-97.7 561,-97.7 561,-75.7 413,-75.7"/>
<polygon fill="none" stroke="#000000" points="413,-75.7 413,-97.7 561,-97.7 561,-75.7 413,-75.7"/>
<text text-anchor="start" x="433" y="-82.8" font-family="Helvetica,sans-Serif" font-size="11.00" fill="#000000">deleted_at</text>
<polygon fill="none" stroke="#000000" points="413,-56.7 413,-75.7 561,-75.7 561,-56.7 413,-56.7"/>
<text text-anchor="start" x="416" y="-62.8" font-family="Helvetica,sans-Serif" font-size="11.00" fill="#000000">...</text>
<polygon fill="#ffffff" stroke="transparent" points="413,-37.7 413,-56.7 481,-56.7 481,-37.7 413,-37.7"/>
<polygon fill="none" stroke="#000000" points="413,-37.7 413,-56.7 481,-56.7 481,-37.7 413,-37.7"/>
<text text-anchor="start" x="416" y="-43.8" font-family="Helvetica,sans-Serif" font-size="11.00" fill="#000000">&lt; 2</text>
<polygon fill="#ffffff" stroke="transparent" points="481,-37.7 481,-56.7 516,-56.7 516,-37.7 481,-37.7"/>
<polygon fill="none" stroke="#000000" points="481,-37.7 481,-56.7 516,-56.7 516,-37.7 481,-37.7"/>
<text text-anchor="start" x="506.8862" y="-43.8" font-family="Helvetica,sans-Serif" font-size="11.00" fill="#000000"> &#160;</text>
<polygon fill="#ffffff" stroke="transparent" points="516,-37.7 516,-56.7 561,-56.7 561,-37.7 516,-37.7"/>
<polygon fill="none" stroke="#000000" points="516,-37.7 516,-56.7 561,-56.7 561,-37.7 516,-37.7"/>
<text text-anchor="start" x="542.4053" y="-43.8" font-family="Helvetica,sans-Serif" font-size="11.00" fill="#000000">1 &gt;</text>
</a>
</g>
</g>
<!-- feature_flags&#45;&gt;entities -->
<g id="edge2" class="edge">
<title>feature_flags:w&#45;&gt;entities:e</title>
<path fill="none" stroke="#000000" d="M399.086,-267.134C377.9203,-284.8629 402.3105,-349.7 364,-349.7"/>
<polygon fill="#000000" stroke="#000000" points="405.3777,-265.129 414.0931,-266.1301 409.1888,-263.9145 413,-262.7 413,-262.7 413,-262.7 409.1888,-263.9145 411.9069,-259.2699 405.3777,-265.129 405.3777,-265.129"/>
<ellipse fill="none" stroke="#000000" cx="402.3287" cy="-266.1007" rx="3.2" ry="3.2"/>
</g>
<!-- feature_flags&#45;&gt;tenants -->
<g id="edge3" class="edge">
<title>feature_flags:w&#45;&gt;tenants:e</title>
<path fill="none" stroke="#000000" d="M398.5347,-283.0499C339.6945,-267.3661 435.4651,-144.0436 372,-92.7 315.3331,-46.8562 263.7454,-45.74 208,-92.7 126.9434,-160.9822 273.4842,-327.7 167.5,-327.7"/>
<polygon fill="#000000" stroke="#000000" points="405.0515,-283.7932 412.592,-288.2768 409.0258,-284.2466 413,-284.7 413,-284.7 413,-284.7 409.0258,-284.2466 413.408,-281.1232 405.0515,-283.7932 405.0515,-283.7932"/>
<ellipse fill="none" stroke="#000000" cx="401.8722" cy="-283.4305" rx="3.2" ry="3.2"/>
</g>
<!-- tenant_feature_overrides -->
<g id="node4" class="node">
<title>tenant_feature_overrides</title>
<g id="a_node4"><a xlink:href="../../tables/tenant_feature_overrides.html" xlink:title="tenant_feature_overrides" target="_top">
<polygon fill="#ffffff" stroke="transparent" points="610,-179.7 610,-445.7 904,-445.7 904,-179.7 610,-179.7"/>
<polygon fill="#f5f5f5" stroke="transparent" points="612,-420.7 612,-443.7 902,-443.7 902,-420.7 612,-420.7"/>
<polygon fill="none" stroke="#000000" points="612,-420.7 612,-443.7 902,-443.7 902,-420.7 612,-420.7"/>
<text text-anchor="start" x="617" y="-429.3" font-family="Helvetica,sans-Serif" font-weight="bold" font-size="11.00" fill="#000000">tenant_feature_overrides</text>
<text text-anchor="start" x="867.0437" y="-428.8" font-family="Helvetica,sans-Serif" font-size="11.00" fill="#000000">[table]</text>
<polygon fill="none" stroke="#000000" points="612,-398.7 612,-420.7 803,-420.7 803,-398.7 612,-398.7"/>
<image xlink:href="../../images/primaryKeys.png" width="11px" height="12px" preserveAspectRatio="xMinYMin meet" x="617" y="-415.7"/>
<text text-anchor="start" x="632" y="-405.8" font-family="Helvetica,sans-Serif" font-size="11.00" fill="#000000">id</text>
<polygon fill="none" stroke="#000000" points="803,-398.7 803,-420.7 902,-420.7 902,-398.7 803,-398.7"/>
<text text-anchor="start" x="806" y="-406.4" font-family="Helvetica,sans-Serif" font-size="11.00" fill="#000000">uuid[2147483647]</text>
<polygon fill="#ffffff" stroke="transparent" points="612,-376.7 612,-398.7 803,-398.7 803,-376.7 612,-376.7"/>
<polygon fill="none" stroke="#000000" points="612,-376.7 612,-398.7 803,-398.7 803,-376.7 612,-376.7"/>
<image xlink:href="../../images/foreignKeys.png" width="11px" height="12px" preserveAspectRatio="xMinYMin meet" x="617" y="-393.7"/>
<text text-anchor="start" x="632" y="-383.8" font-family="Helvetica,sans-Serif" font-size="11.00" fill="#000000">tenant_id</text>
<polygon fill="none" stroke="#000000" points="803,-376.7 803,-398.7 902,-398.7 902,-376.7 803,-376.7"/>
<text text-anchor="start" x="806" y="-384.4" font-family="Helvetica,sans-Serif" font-size="11.00" fill="#000000">uuid[2147483647]</text>
<polygon fill="none" stroke="#000000" points="612,-354.7 612,-376.7 803,-376.7 803,-354.7 612,-354.7"/>
<image xlink:href="../../images/foreignKeys.png" width="11px" height="12px" preserveAspectRatio="xMinYMin meet" x="617" y="-371.7"/>
<text text-anchor="start" x="632" y="-361.8" font-family="Helvetica,sans-Serif" font-size="11.00" fill="#000000">entity_id</text>
<polygon fill="none" stroke="#000000" points="803,-354.7 803,-376.7 902,-376.7 902,-354.7 803,-354.7"/>
<text text-anchor="start" x="806" y="-362.4" font-family="Helvetica,sans-Serif" font-size="11.00" fill="#000000">uuid[2147483647]</text>
<polygon fill="#ffffff" stroke="transparent" points="612,-332.7 612,-354.7 803,-354.7 803,-332.7 612,-332.7"/>
<polygon fill="none" stroke="#000000" points="612,-332.7 612,-354.7 803,-354.7 803,-332.7 612,-332.7"/>
<image xlink:href="../../images/foreignKeys.png" width="11px" height="12px" preserveAspectRatio="xMinYMin meet" x="617" y="-349.7"/>
<text text-anchor="start" x="632" y="-339.8" font-family="Helvetica,sans-Serif" font-size="11.00" fill="#000000">feature_flag_id</text>
<polygon fill="none" stroke="#000000" points="803,-332.7 803,-354.7 902,-354.7 902,-332.7 803,-332.7"/>
<text text-anchor="start" x="806" y="-340.4" font-family="Helvetica,sans-Serif" font-size="11.00" fill="#000000">uuid[2147483647]</text>
<polygon fill="#ffffff" stroke="transparent" points="612,-310.7 612,-332.7 803,-332.7 803,-310.7 612,-310.7"/>
<polygon fill="none" stroke="#000000" points="612,-310.7 612,-332.7 803,-332.7 803,-310.7 612,-310.7"/>
<text text-anchor="start" x="632" y="-317.8" font-family="Helvetica,sans-Serif" font-size="11.00" fill="#000000">feature_flag_name</text>
<polygon fill="none" stroke="#000000" points="803,-310.7 803,-332.7 902,-332.7 902,-310.7 803,-310.7"/>
<text text-anchor="start" x="806" y="-318.4" font-family="Helvetica,sans-Serif" font-size="11.00" fill="#000000">varchar[100]</text>
<polygon fill="#ffffff" stroke="transparent" points="612,-288.7 612,-310.7 803,-310.7 803,-288.7 612,-288.7"/>
<polygon fill="none" stroke="#000000" points="612,-288.7 612,-310.7 803,-310.7 803,-288.7 612,-288.7"/>
<text text-anchor="start" x="632" y="-295.8" font-family="Helvetica,sans-Serif" font-size="11.00" fill="#000000">enabled</text>
<polygon fill="none" stroke="#000000" points="803,-288.7 803,-310.7 902,-310.7 902,-288.7 803,-288.7"/>
<text text-anchor="start" x="806" y="-296.4" font-family="Helvetica,sans-Serif" font-size="11.00" fill="#000000">bool[1]</text>
<polygon fill="#ffffff" stroke="transparent" points="612,-266.7 612,-288.7 803,-288.7 803,-266.7 612,-266.7"/>
<polygon fill="none" stroke="#000000" points="612,-266.7 612,-288.7 803,-288.7 803,-266.7 612,-266.7"/>
<text text-anchor="start" x="632" y="-273.8" font-family="Helvetica,sans-Serif" font-size="11.00" fill="#000000">value</text>
<polygon fill="none" stroke="#000000" points="803,-266.7 803,-288.7 902,-288.7 902,-266.7 803,-266.7"/>
<text text-anchor="start" x="805.7258" y="-274.4" font-family="Helvetica,sans-Serif" font-size="11.00" fill="#000000">jsonb[2147483647]</text>
<polygon fill="none" stroke="#000000" points="612,-244.7 612,-266.7 803,-266.7 803,-244.7 612,-244.7"/>
<text text-anchor="start" x="632" y="-251.8" font-family="Helvetica,sans-Serif" font-size="11.00" fill="#000000">reason</text>
<polygon fill="none" stroke="#000000" points="803,-244.7 803,-266.7 902,-266.7 902,-244.7 803,-244.7"/>
<text text-anchor="start" x="806" y="-252.4" font-family="Helvetica,sans-Serif" font-size="11.00" fill="#000000">text[2147483647]</text>
<polygon fill="#ffffff" stroke="transparent" points="612,-222.7 612,-244.7 803,-244.7 803,-222.7 612,-222.7"/>
<polygon fill="none" stroke="#000000" points="612,-222.7 612,-244.7 803,-244.7 803,-222.7 612,-222.7"/>
<text text-anchor="start" x="632" y="-229.8" font-family="Helvetica,sans-Serif" font-size="11.00" fill="#000000">created_at</text>
<polygon fill="none" stroke="#000000" points="803,-222.7 803,-244.7 902,-244.7 902,-222.7 803,-222.7"/>
<text text-anchor="start" x="806" y="-230.4" font-family="Helvetica,sans-Serif" font-size="11.00" fill="#000000">timestamptz[35,6]</text>
<polygon fill="#ffffff" stroke="transparent" points="612,-200.7 612,-222.7 803,-222.7 803,-200.7 612,-200.7"/>
<polygon fill="none" stroke="#000000" points="612,-200.7 612,-222.7 803,-222.7 803,-200.7 612,-200.7"/>
<text text-anchor="start" x="632" y="-207.8" font-family="Helvetica,sans-Serif" font-size="11.00" fill="#000000">updated_at</text>
<polygon fill="none" stroke="#000000" points="803,-200.7 803,-222.7 902,-222.7 902,-200.7 803,-200.7"/>
<text text-anchor="start" x="806" y="-208.4" font-family="Helvetica,sans-Serif" font-size="11.00" fill="#000000">timestamptz[35,6]</text>
<polygon fill="#ffffff" stroke="transparent" points="612,-181.7 612,-200.7 712,-200.7 712,-181.7 612,-181.7"/>
<polygon fill="none" stroke="#000000" points="612,-181.7 612,-200.7 712,-200.7 712,-181.7 612,-181.7"/>
<text text-anchor="start" x="615" y="-187.8" font-family="Helvetica,sans-Serif" font-size="11.00" fill="#000000">&lt; 3</text>
<polygon fill="#ffffff" stroke="transparent" points="712,-181.7 712,-200.7 803,-200.7 803,-181.7 712,-181.7"/>
<polygon fill="none" stroke="#000000" points="712,-181.7 712,-200.7 803,-200.7 803,-181.7 712,-181.7"/>
<text text-anchor="start" x="793.8862" y="-187.8" font-family="Helvetica,sans-Serif" font-size="11.00" fill="#000000"> &#160;</text>
<polygon fill="#ffffff" stroke="transparent" points="803,-181.7 803,-200.7 902,-200.7 902,-181.7 803,-181.7"/>
<polygon fill="none" stroke="#000000" points="803,-181.7 803,-200.7 902,-200.7 902,-181.7 803,-181.7"/>
<text text-anchor="start" x="883.4053" y="-187.8" font-family="Helvetica,sans-Serif" font-size="11.00" fill="#000000">0 &gt;</text>
<polygon fill="none" stroke="#000000" stroke-width="2" points="611,-180.7 611,-444.7 903,-444.7 903,-180.7 611,-180.7"/>
</a>
</g>
</g>
<!-- tenant_feature_overrides&#45;&gt;entities -->
<g id="edge4" class="edge">
<title>tenant_feature_overrides:w&#45;&gt;entities:e</title>
<path fill="none" stroke="#000000" d="M597.4443,-365.1677C544.1936,-362.3914 388.5927,-349.7 364,-349.7"/>
<polygon fill="#000000" stroke="#000000" points="604.0053,-365.4076 611.8684,-369.2976 608.0027,-365.5538 612,-365.7 612,-365.7 612,-365.7 608.0027,-365.5538 612.1316,-362.1024 604.0053,-365.4076 604.0053,-365.4076"/>
<ellipse fill="none" stroke="#000000" cx="600.8075" cy="-365.2906" rx="3.2" ry="3.2"/>
</g>
<!-- tenant_feature_overrides&#45;&gt;tenants -->
<g id="edge6" class="edge">
<title>tenant_feature_overrides:w&#45;&gt;tenants:e</title>
<path fill="none" stroke="#000000" d="M597.5148,-387.9079C428.6327,-392.7704 360.1408,-480.5109 208,-394.7 177.693,-377.6061 202.2953,-327.7 167.5,-327.7"/>
<polygon fill="#000000" stroke="#000000" points="604.0008,-387.8149 612.0517,-391.2996 608.0004,-387.7574 612,-387.7 612,-387.7 612,-387.7 608.0004,-387.7574 611.9483,-384.1004 604.0008,-387.8149 604.0008,-387.8149"/>
<ellipse fill="none" stroke="#000000" cx="600.8012" cy="-387.8608" rx="3.2" ry="3.2"/>
</g>
<!-- tenant_feature_overrides&#45;&gt;feature_flags -->
<g id="edge5" class="edge">
<title>tenant_feature_overrides:w&#45;&gt;feature_flags:e</title>
<path fill="none" stroke="#000000" d="M598.0658,-339.4556C584.64,-329.7369 583.0965,-306.7 561,-306.7"/>
<polygon fill="#000000" stroke="#000000" points="604.3471,-341.3689 610.951,-347.1438 608.1736,-342.5345 612,-343.7 612,-343.7 612,-343.7 608.1736,-342.5345 613.049,-340.2562 604.3471,-341.3689 604.3471,-341.3689"/>
<ellipse fill="none" stroke="#000000" cx="601.286" cy="-340.4365" rx="3.2" ry="3.2"/>
</g>
</g>
</svg>
