<?xml version="1.0" encoding="UTF-8" standalone="no"?>
<!DOCTYPE svg PUBLIC "-//W3C//DTD SVG 1.1//EN"
 "http://www.w3.org/Graphics/SVG/1.1/DTD/svg11.dtd">
<!-- Generated by graphviz version 2.40.1 (20161225.0304)
 -->
<!-- Title: oneDegreeRelationshipsDiagram Pages: 1 -->
<svg width="910pt" height="656pt"
 viewBox="0.00 0.00 910.00 655.70" xmlns="http://www.w3.org/2000/svg" xmlns:xlink="http://www.w3.org/1999/xlink">
<g id="graph0" class="graph" transform="scale(1 1) rotate(0) translate(4 651.7037)">
<title>oneDegreeRelationshipsDiagram</title>
<polygon fill="#ffffff" stroke="transparent" points="-4,4 -4,-651.7037 906,-651.7037 906,4 -4,4"/>
<text text-anchor="middle" x="72.4936" y="-7.3" font-family="Helvetica,sans-Serif" font-size="11.00" fill="#000000">Generated by SchemaSpy</text>
<!-- entities -->
<g id="node1" class="node">
<title>entities</title>
<g id="a_node1"><a xlink:href="../../tables/entities.html" xlink:title="entities" target="_top">
<polygon fill="#ffffff" stroke="transparent" points="216,-75.2037 216,-356.2037 364,-356.2037 364,-75.2037 216,-75.2037"/>
<polygon fill="#f5f5f5" stroke="transparent" points="216,-332.7037 216,-355.7037 364,-355.7037 364,-332.7037 216,-332.7037"/>
<polygon fill="none" stroke="#000000" points="216,-332.7037 216,-355.7037 364,-355.7037 364,-332.7037 216,-332.7037"/>
<text text-anchor="start" x="221" y="-341.3037" font-family="Helvetica,sans-Serif" font-weight="bold" font-size="11.00" fill="#000000">entities</text>
<text text-anchor="start" x="329.0437" y="-340.8037" font-family="Helvetica,sans-Serif" font-size="11.00" fill="#000000">[table]</text>
<polygon fill="none" stroke="#000000" points="216,-310.7037 216,-332.7037 364,-332.7037 364,-310.7037 216,-310.7037"/>
<image xlink:href="../../images/primaryKeys.png" width="11px" height="12px" preserveAspectRatio="xMinYMin meet" x="221" y="-327.704"/>
<text text-anchor="start" x="236" y="-317.8037" font-family="Helvetica,sans-Serif" font-size="11.00" fill="#000000">uuid</text>
<polygon fill="#ffffff" stroke="transparent" points="216,-288.7037 216,-310.7037 364,-310.7037 364,-288.7037 216,-288.7037"/>
<polygon fill="none" stroke="#000000" points="216,-288.7037 216,-310.7037 364,-310.7037 364,-288.7037 216,-288.7037"/>
<image xlink:href="../../images/foreignKeys.png" width="11px" height="12px" preserveAspectRatio="xMinYMin meet" x="221" y="-305.704"/>
<text text-anchor="start" x="236" y="-295.8037" font-family="Helvetica,sans-Serif" font-size="11.00" fill="#000000">tenant_id</text>
<polygon fill="#ffffff" stroke="transparent" points="216,-266.7037 216,-288.7037 364,-288.7037 364,-266.7037 216,-266.7037"/>
<polygon fill="none" stroke="#000000" points="216,-266.7037 216,-288.7037 364,-288.7037 364,-266.7037 216,-266.7037"/>
<image xlink:href="../../images/foreignKeys.png" width="11px" height="12px" preserveAspectRatio="xMinYMin meet" x="221" y="-283.704"/>
<text text-anchor="start" x="236" y="-273.8037" font-family="Helvetica,sans-Serif" font-size="11.00" fill="#000000">parent_id</text>
<polygon fill="#ffffff" stroke="transparent" points="216,-244.7037 216,-266.7037 364,-266.7037 364,-244.7037 216,-244.7037"/>
<polygon fill="none" stroke="#000000" points="216,-244.7037 216,-266.7037 364,-266.7037 364,-244.7037 216,-244.7037"/>
<text text-anchor="start" x="236" y="-251.8037" font-family="Helvetica,sans-Serif" font-size="11.00" fill="#000000">name</text>
<polygon fill="#ffffff" stroke="transparent" points="216,-222.7037 216,-244.7037 364,-244.7037 364,-222.7037 216,-222.7037"/>
<polygon fill="none" stroke="#000000" points="216,-222.7037 216,-244.7037 364,-244.7037 364,-222.7037 216,-222.7037"/>
<text text-anchor="start" x="236" y="-229.8037" font-family="Helvetica,sans-Serif" font-size="11.00" fill="#000000">code</text>
<polygon fill="#ffffff" stroke="transparent" points="216,-200.7037 216,-222.7037 364,-222.7037 364,-200.7037 216,-200.7037"/>
<polygon fill="none" stroke="#000000" points="216,-200.7037 216,-222.7037 364,-222.7037 364,-200.7037 216,-200.7037"/>
<text text-anchor="start" x="236" y="-207.8037" font-family="Helvetica,sans-Serif" font-size="11.00" fill="#000000">type</text>
<polygon fill="#ffffff" stroke="transparent" points="216,-178.7037 216,-200.7037 364,-200.7037 364,-178.7037 216,-178.7037"/>
<polygon fill="none" stroke="#000000" points="216,-178.7037 216,-200.7037 364,-200.7037 364,-178.7037 216,-178.7037"/>
<text text-anchor="start" x="236" y="-185.8037" font-family="Helvetica,sans-Serif" font-size="11.00" fill="#000000">is_active</text>
<polygon fill="#ffffff" stroke="transparent" points="216,-156.7037 216,-178.7037 364,-178.7037 364,-156.7037 216,-156.7037"/>
<polygon fill="none" stroke="#000000" points="216,-156.7037 216,-178.7037 364,-178.7037 364,-156.7037 216,-156.7037"/>
<text text-anchor="start" x="236" y="-163.8037" font-family="Helvetica,sans-Serif" font-size="11.00" fill="#000000">address</text>
<polygon fill="#ffffff" stroke="transparent" points="216,-134.7037 216,-156.7037 364,-156.7037 364,-134.7037 216,-134.7037"/>
<polygon fill="none" stroke="#000000" points="216,-134.7037 216,-156.7037 364,-156.7037 364,-134.7037 216,-134.7037"/>
<text text-anchor="start" x="236" y="-141.8037" font-family="Helvetica,sans-Serif" font-size="11.00" fill="#000000">settings</text>
<polygon fill="#ffffff" stroke="transparent" points="216,-112.7037 216,-134.7037 364,-134.7037 364,-112.7037 216,-112.7037"/>
<polygon fill="none" stroke="#000000" points="216,-112.7037 216,-134.7037 364,-134.7037 364,-112.7037 216,-112.7037"/>
<text text-anchor="start" x="236" y="-119.8037" font-family="Helvetica,sans-Serif" font-size="11.00" fill="#000000">deleted_at</text>
<polygon fill="none" stroke="#000000" points="216,-93.7037 216,-112.7037 364,-112.7037 364,-93.7037 216,-93.7037"/>
<text text-anchor="start" x="219" y="-99.8037" font-family="Helvetica,sans-Serif" font-size="11.00" fill="#000000">...</text>
<polygon fill="#ffffff" stroke="transparent" points="216,-74.7037 216,-93.7037 281,-93.7037 281,-74.7037 216,-74.7037"/>
<polygon fill="none" stroke="#000000" points="216,-74.7037 216,-93.7037 281,-93.7037 281,-74.7037 216,-74.7037"/>
<text text-anchor="start" x="219" y="-80.8037" font-family="Helvetica,sans-Serif" font-size="11.00" fill="#000000">&lt; 2</text>
<polygon fill="#ffffff" stroke="transparent" points="281,-74.7037 281,-93.7037 315,-93.7037 315,-74.7037 281,-74.7037"/>
<polygon fill="none" stroke="#000000" points="281,-74.7037 281,-93.7037 315,-93.7037 315,-74.7037 281,-74.7037"/>
<text text-anchor="start" x="305.8862" y="-80.8037" font-family="Helvetica,sans-Serif" font-size="11.00" fill="#000000"> &#160;</text>
<polygon fill="#ffffff" stroke="transparent" points="315,-74.7037 315,-93.7037 364,-93.7037 364,-74.7037 315,-74.7037"/>
<polygon fill="none" stroke="#000000" points="315,-74.7037 315,-93.7037 364,-93.7037 364,-74.7037 315,-74.7037"/>
<text text-anchor="start" x="339.2904" y="-80.8037" font-family="Helvetica,sans-Serif" font-size="11.00" fill="#000000">30 &gt;</text>
</a>
</g>
</g>
<!-- tenants -->
<g id="node2" class="node">
<title>tenants</title>
<g id="a_node2"><a xlink:href="../../tables/tenants.html" xlink:title="tenants" target="_top">
<polygon fill="#ffffff" stroke="transparent" points="8,-291.2037 8,-484.2037 167,-484.2037 167,-291.2037 8,-291.2037"/>
<polygon fill="#f5f5f5" stroke="transparent" points="8.5,-460.7037 8.5,-483.7037 167.5,-483.7037 167.5,-460.7037 8.5,-460.7037"/>
<polygon fill="none" stroke="#000000" points="8.5,-460.7037 8.5,-483.7037 167.5,-483.7037 167.5,-460.7037 8.5,-460.7037"/>
<text text-anchor="start" x="13.5" y="-469.3037" font-family="Helvetica,sans-Serif" font-weight="bold" font-size="11.00" fill="#000000">tenants</text>
<text text-anchor="start" x="132.5437" y="-468.8037" font-family="Helvetica,sans-Serif" font-size="11.00" fill="#000000">[table]</text>
<polygon fill="none" stroke="#000000" points="8.5,-438.7037 8.5,-460.7037 167.5,-460.7037 167.5,-438.7037 8.5,-438.7037"/>
<image xlink:href="../../images/primaryKeys.png" width="11px" height="12px" preserveAspectRatio="xMinYMin meet" x="13.5" y="-455.704"/>
<text text-anchor="start" x="28.5" y="-445.8037" font-family="Helvetica,sans-Serif" font-size="11.00" fill="#000000">id</text>
<polygon fill="#ffffff" stroke="transparent" points="8.5,-416.7037 8.5,-438.7037 167.5,-438.7037 167.5,-416.7037 8.5,-416.7037"/>
<polygon fill="none" stroke="#000000" points="8.5,-416.7037 8.5,-438.7037 167.5,-438.7037 167.5,-416.7037 8.5,-416.7037"/>
<text text-anchor="start" x="28.5" y="-423.8037" font-family="Helvetica,sans-Serif" font-size="11.00" fill="#000000">slug</text>
<polygon fill="#ffffff" stroke="transparent" points="8.5,-394.7037 8.5,-416.7037 167.5,-416.7037 167.5,-394.7037 8.5,-394.7037"/>
<polygon fill="none" stroke="#000000" points="8.5,-394.7037 8.5,-416.7037 167.5,-416.7037 167.5,-394.7037 8.5,-394.7037"/>
<text text-anchor="start" x="28.5" y="-401.8037" font-family="Helvetica,sans-Serif" font-size="11.00" fill="#000000">name</text>
<polygon fill="#ffffff" stroke="transparent" points="8.5,-372.7037 8.5,-394.7037 167.5,-394.7037 167.5,-372.7037 8.5,-372.7037"/>
<polygon fill="none" stroke="#000000" points="8.5,-372.7037 8.5,-394.7037 167.5,-394.7037 167.5,-372.7037 8.5,-372.7037"/>
<text text-anchor="start" x="28.5" y="-379.8037" font-family="Helvetica,sans-Serif" font-size="11.00" fill="#000000">subdomain</text>
<polygon fill="#ffffff" stroke="transparent" points="8.5,-350.7037 8.5,-372.7037 167.5,-372.7037 167.5,-350.7037 8.5,-350.7037"/>
<polygon fill="none" stroke="#000000" points="8.5,-350.7037 8.5,-372.7037 167.5,-372.7037 167.5,-350.7037 8.5,-350.7037"/>
<text text-anchor="start" x="28.5" y="-357.8037" font-family="Helvetica,sans-Serif" font-size="11.00" fill="#000000">status</text>
<polygon fill="#ffffff" stroke="transparent" points="8.5,-328.7037 8.5,-350.7037 167.5,-350.7037 167.5,-328.7037 8.5,-328.7037"/>
<polygon fill="none" stroke="#000000" points="8.5,-328.7037 8.5,-350.7037 167.5,-350.7037 167.5,-328.7037 8.5,-328.7037"/>
<text text-anchor="start" x="28.5" y="-335.8037" font-family="Helvetica,sans-Serif" font-size="11.00" fill="#000000">deleted_at</text>
<polygon fill="none" stroke="#000000" points="8.5,-309.7037 8.5,-328.7037 167.5,-328.7037 167.5,-309.7037 8.5,-309.7037"/>
<text text-anchor="start" x="11.5" y="-315.8037" font-family="Helvetica,sans-Serif" font-size="11.00" fill="#000000">...</text>
<polygon fill="#ffffff" stroke="transparent" points="8.5,-290.7037 8.5,-309.7037 74.5,-309.7037 74.5,-290.7037 8.5,-290.7037"/>
<polygon fill="none" stroke="#000000" points="8.5,-290.7037 8.5,-309.7037 74.5,-309.7037 74.5,-290.7037 8.5,-290.7037"/>
<text text-anchor="start" x="11.5" y="-296.8037" font-family="Helvetica,sans-Serif" font-size="11.00" fill="#000000"> &#160;</text>
<polygon fill="#ffffff" stroke="transparent" points="74.5,-290.7037 74.5,-309.7037 113.5,-309.7037 113.5,-290.7037 74.5,-290.7037"/>
<polygon fill="none" stroke="#000000" points="74.5,-290.7037 74.5,-309.7037 113.5,-309.7037 113.5,-290.7037 74.5,-290.7037"/>
<text text-anchor="start" x="104.3862" y="-296.8037" font-family="Helvetica,sans-Serif" font-size="11.00" fill="#000000"> &#160;</text>
<polygon fill="#ffffff" stroke="transparent" points="113.5,-290.7037 113.5,-309.7037 167.5,-309.7037 167.5,-290.7037 113.5,-290.7037"/>
<polygon fill="none" stroke="#000000" points="113.5,-290.7037 113.5,-309.7037 167.5,-309.7037 167.5,-290.7037 113.5,-290.7037"/>
<text text-anchor="start" x="142.7904" y="-296.8037" font-family="Helvetica,sans-Serif" font-size="11.00" fill="#000000">37 &gt;</text>
</a>
</g>
</g>
<!-- entities&#45;&gt;tenants -->
<g id="edge1" class="edge">
<title>entities:w&#45;&gt;tenants:e</title>
<path fill="none" stroke="#000000" d="M201.8432,-302.5662C159.8801,-323.3037 231.8174,-449.7037 167.5,-449.7037"/>
<polygon fill="#000000" stroke="#000000" points="208.1587,-301.2892 216.7135,-303.2323 212.0793,-300.4965 216,-299.7037 216,-299.7037 216,-299.7037 212.0793,-300.4965 215.2865,-296.1751 208.1587,-301.2892 208.1587,-301.2892"/>
<ellipse fill="none" stroke="#000000" cx="205.0222" cy="-301.9234" rx="3.2" ry="3.2"/>
</g>
<!-- permissions -->
<g id="node3" class="node">
<title>permissions</title>
<g id="a_node3"><a xlink:href="../../tables/permissions.html" xlink:title="permissions" target="_top">
<polygon fill="#ffffff" stroke="transparent" points="222.5,-405.2037 222.5,-576.2037 357.5,-576.2037 357.5,-405.2037 222.5,-405.2037"/>
<polygon fill="#f5f5f5" stroke="transparent" points="223,-552.7037 223,-575.7037 358,-575.7037 358,-552.7037 223,-552.7037"/>
<polygon fill="none" stroke="#000000" points="223,-552.7037 223,-575.7037 358,-575.7037 358,-552.7037 223,-552.7037"/>
<text text-anchor="start" x="228" y="-561.3037" font-family="Helvetica,sans-Serif" font-weight="bold" font-size="11.00" fill="#000000">permissions</text>
<text text-anchor="start" x="323.0437" y="-560.8037" font-family="Helvetica,sans-Serif" font-size="11.00" fill="#000000">[table]</text>
<polygon fill="none" stroke="#000000" points="223,-530.7037 223,-552.7037 358,-552.7037 358,-530.7037 223,-530.7037"/>
<image xlink:href="../../images/primaryKeys.png" width="11px" height="12px" preserveAspectRatio="xMinYMin meet" x="228" y="-547.704"/>
<text text-anchor="start" x="243" y="-537.8037" font-family="Helvetica,sans-Serif" font-size="11.00" fill="#000000">id</text>
<polygon fill="#ffffff" stroke="transparent" points="223,-508.7037 223,-530.7037 358,-530.7037 358,-508.7037 223,-508.7037"/>
<polygon fill="none" stroke="#000000" points="223,-508.7037 223,-530.7037 358,-530.7037 358,-508.7037 223,-508.7037"/>
<image xlink:href="../../images/foreignKeys.png" width="11px" height="12px" preserveAspectRatio="xMinYMin meet" x="228" y="-525.704"/>
<text text-anchor="start" x="243" y="-515.8037" font-family="Helvetica,sans-Serif" font-size="11.00" fill="#000000">tenant_id</text>
<polygon fill="#ffffff" stroke="transparent" points="223,-486.7037 223,-508.7037 358,-508.7037 358,-486.7037 223,-486.7037"/>
<polygon fill="none" stroke="#000000" points="223,-486.7037 223,-508.7037 358,-508.7037 358,-486.7037 223,-486.7037"/>
<image xlink:href="../../images/foreignKeys.png" width="11px" height="12px" preserveAspectRatio="xMinYMin meet" x="228" y="-503.704"/>
<text text-anchor="start" x="243" y="-493.8037" font-family="Helvetica,sans-Serif" font-size="11.00" fill="#000000">resource_id</text>
<polygon fill="#ffffff" stroke="transparent" points="223,-464.7037 223,-486.7037 358,-486.7037 358,-464.7037 223,-464.7037"/>
<polygon fill="none" stroke="#000000" points="223,-464.7037 223,-486.7037 358,-486.7037 358,-464.7037 223,-464.7037"/>
<image xlink:href="../../images/foreignKeys.png" width="11px" height="12px" preserveAspectRatio="xMinYMin meet" x="228" y="-481.704"/>
<text text-anchor="start" x="243" y="-471.8037" font-family="Helvetica,sans-Serif" font-size="11.00" fill="#000000">action_id</text>
<polygon fill="#ffffff" stroke="transparent" points="223,-442.7037 223,-464.7037 358,-464.7037 358,-442.7037 223,-442.7037"/>
<polygon fill="none" stroke="#000000" points="223,-442.7037 223,-464.7037 358,-464.7037 358,-442.7037 223,-442.7037"/>
<text text-anchor="start" x="243" y="-449.8037" font-family="Helvetica,sans-Serif" font-size="11.00" fill="#000000">name</text>
<polygon fill="none" stroke="#000000" points="223,-423.7037 223,-442.7037 358,-442.7037 358,-423.7037 223,-423.7037"/>
<text text-anchor="start" x="226" y="-429.8037" font-family="Helvetica,sans-Serif" font-size="11.00" fill="#000000">...</text>
<polygon fill="#ffffff" stroke="transparent" points="223,-404.7037 223,-423.7037 284,-423.7037 284,-404.7037 223,-404.7037"/>
<polygon fill="none" stroke="#000000" points="223,-404.7037 223,-423.7037 284,-423.7037 284,-404.7037 223,-404.7037"/>
<text text-anchor="start" x="226" y="-410.8037" font-family="Helvetica,sans-Serif" font-size="11.00" fill="#000000">&lt; 3</text>
<polygon fill="#ffffff" stroke="transparent" points="284,-404.7037 284,-423.7037 316,-423.7037 316,-404.7037 284,-404.7037"/>
<polygon fill="none" stroke="#000000" points="284,-404.7037 284,-423.7037 316,-423.7037 316,-404.7037 284,-404.7037"/>
<text text-anchor="start" x="306.8862" y="-410.8037" font-family="Helvetica,sans-Serif" font-size="11.00" fill="#000000"> &#160;</text>
<polygon fill="#ffffff" stroke="transparent" points="316,-404.7037 316,-423.7037 358,-423.7037 358,-404.7037 316,-404.7037"/>
<polygon fill="none" stroke="#000000" points="316,-404.7037 316,-423.7037 358,-423.7037 358,-404.7037 316,-404.7037"/>
<text text-anchor="start" x="339.4053" y="-410.8037" font-family="Helvetica,sans-Serif" font-size="11.00" fill="#000000">4 &gt;</text>
</a>
</g>
</g>
<!-- permissions&#45;&gt;tenants -->
<g id="edge2" class="edge">
<title>permissions:w&#45;&gt;tenants:e</title>
<path fill="none" stroke="#000000" d="M209.1082,-515.5345C188.9924,-500.4648 201.3098,-449.7037 167.5,-449.7037"/>
<polygon fill="#000000" stroke="#000000" points="215.3376,-517.404 221.9652,-523.1517 219.1688,-518.5538 223,-519.7037 223,-519.7037 223,-519.7037 219.1688,-518.5538 224.0348,-516.2556 215.3376,-517.404 215.3376,-517.404"/>
<ellipse fill="none" stroke="#000000" cx="212.2727" cy="-516.4841" rx="3.2" ry="3.2"/>
</g>
<!-- user_permissions -->
<g id="node4" class="node">
<title>user_permissions</title>
<g id="a_node4"><a xlink:href="../../tables/user_permissions.html" xlink:title="user_permissions" target="_top">
<polygon fill="#ffffff" stroke="transparent" points="653,-333.7037 653,-643.7037 894,-643.7037 894,-333.7037 653,-333.7037"/>
<polygon fill="#f5f5f5" stroke="transparent" points="655.5,-618.7037 655.5,-641.7037 892.5,-641.7037 892.5,-618.7037 655.5,-618.7037"/>
<polygon fill="none" stroke="#000000" points="655.5,-618.7037 655.5,-641.7037 892.5,-641.7037 892.5,-618.7037 655.5,-618.7037"/>
<text text-anchor="start" x="660.5" y="-627.3037" font-family="Helvetica,sans-Serif" font-weight="bold" font-size="11.00" fill="#000000">user_permissions</text>
<text text-anchor="start" x="857.5437" y="-626.8037" font-family="Helvetica,sans-Serif" font-size="11.00" fill="#000000">[table]</text>
<polygon fill="none" stroke="#000000" points="655.5,-596.7037 655.5,-618.7037 793.5,-618.7037 793.5,-596.7037 655.5,-596.7037"/>
<image xlink:href="../../images/primaryKeys.png" width="11px" height="12px" preserveAspectRatio="xMinYMin meet" x="660.5" y="-613.704"/>
<text text-anchor="start" x="675.5" y="-603.8037" font-family="Helvetica,sans-Serif" font-size="11.00" fill="#000000">id</text>
<polygon fill="none" stroke="#000000" points="793.5,-596.7037 793.5,-618.7037 892.5,-618.7037 892.5,-596.7037 793.5,-596.7037"/>
<text text-anchor="start" x="796.5" y="-604.4037" font-family="Helvetica,sans-Serif" font-size="11.00" fill="#000000">uuid[2147483647]</text>
<polygon fill="#ffffff" stroke="transparent" points="655.5,-574.7037 655.5,-596.7037 793.5,-596.7037 793.5,-574.7037 655.5,-574.7037"/>
<polygon fill="none" stroke="#000000" points="655.5,-574.7037 655.5,-596.7037 793.5,-596.7037 793.5,-574.7037 655.5,-574.7037"/>
<image xlink:href="../../images/foreignKeys.png" width="11px" height="12px" preserveAspectRatio="xMinYMin meet" x="660.5" y="-591.704"/>
<text text-anchor="start" x="675.5" y="-581.8037" font-family="Helvetica,sans-Serif" font-size="11.00" fill="#000000">tenant_id</text>
<polygon fill="none" stroke="#000000" points="793.5,-574.7037 793.5,-596.7037 892.5,-596.7037 892.5,-574.7037 793.5,-574.7037"/>
<text text-anchor="start" x="796.5" y="-582.4037" font-family="Helvetica,sans-Serif" font-size="11.00" fill="#000000">uuid[2147483647]</text>
<polygon fill="#ffffff" stroke="transparent" points="655.5,-552.7037 655.5,-574.7037 793.5,-574.7037 793.5,-552.7037 655.5,-552.7037"/>
<polygon fill="none" stroke="#000000" points="655.5,-552.7037 655.5,-574.7037 793.5,-574.7037 793.5,-552.7037 655.5,-552.7037"/>
<image xlink:href="../../images/foreignKeys.png" width="11px" height="12px" preserveAspectRatio="xMinYMin meet" x="660.5" y="-569.704"/>
<text text-anchor="start" x="675.5" y="-559.8037" font-family="Helvetica,sans-Serif" font-size="11.00" fill="#000000">user_id</text>
<polygon fill="none" stroke="#000000" points="793.5,-552.7037 793.5,-574.7037 892.5,-574.7037 892.5,-552.7037 793.5,-552.7037"/>
<text text-anchor="start" x="796.5" y="-560.4037" font-family="Helvetica,sans-Serif" font-size="11.00" fill="#000000">uuid[2147483647]</text>
<polygon fill="#ffffff" stroke="transparent" points="655.5,-530.7037 655.5,-552.7037 793.5,-552.7037 793.5,-530.7037 655.5,-530.7037"/>
<polygon fill="none" stroke="#000000" points="655.5,-530.7037 655.5,-552.7037 793.5,-552.7037 793.5,-530.7037 655.5,-530.7037"/>
<image xlink:href="../../images/foreignKeys.png" width="11px" height="12px" preserveAspectRatio="xMinYMin meet" x="660.5" y="-547.704"/>
<text text-anchor="start" x="675.5" y="-537.8037" font-family="Helvetica,sans-Serif" font-size="11.00" fill="#000000">permission_id</text>
<polygon fill="none" stroke="#000000" points="793.5,-530.7037 793.5,-552.7037 892.5,-552.7037 892.5,-530.7037 793.5,-530.7037"/>
<text text-anchor="start" x="796.5" y="-538.4037" font-family="Helvetica,sans-Serif" font-size="11.00" fill="#000000">uuid[2147483647]</text>
<polygon fill="#ffffff" stroke="transparent" points="655.5,-508.7037 655.5,-530.7037 793.5,-530.7037 793.5,-508.7037 655.5,-508.7037"/>
<polygon fill="none" stroke="#000000" points="655.5,-508.7037 655.5,-530.7037 793.5,-530.7037 793.5,-508.7037 655.5,-508.7037"/>
<image xlink:href="../../images/foreignKeys.png" width="11px" height="12px" preserveAspectRatio="xMinYMin meet" x="660.5" y="-525.704"/>
<text text-anchor="start" x="675.5" y="-515.8037" font-family="Helvetica,sans-Serif" font-size="11.00" fill="#000000">entity_id</text>
<polygon fill="none" stroke="#000000" points="793.5,-508.7037 793.5,-530.7037 892.5,-530.7037 892.5,-508.7037 793.5,-508.7037"/>
<text text-anchor="start" x="796.5" y="-516.4037" font-family="Helvetica,sans-Serif" font-size="11.00" fill="#000000">uuid[2147483647]</text>
<polygon fill="none" stroke="#000000" points="655.5,-486.7037 655.5,-508.7037 793.5,-508.7037 793.5,-486.7037 655.5,-486.7037"/>
<text text-anchor="start" x="675.5" y="-493.8037" font-family="Helvetica,sans-Serif" font-size="11.00" fill="#000000">effect</text>
<polygon fill="none" stroke="#000000" points="793.5,-486.7037 793.5,-508.7037 892.5,-508.7037 892.5,-486.7037 793.5,-486.7037"/>
<text text-anchor="start" x="796.5" y="-494.4037" font-family="Helvetica,sans-Serif" font-size="11.00" fill="#000000">varchar[20]</text>
<polygon fill="none" stroke="#000000" points="655.5,-464.7037 655.5,-486.7037 793.5,-486.7037 793.5,-464.7037 655.5,-464.7037"/>
<text text-anchor="start" x="675.5" y="-471.8037" font-family="Helvetica,sans-Serif" font-size="11.00" fill="#000000">reason</text>
<polygon fill="none" stroke="#000000" points="793.5,-464.7037 793.5,-486.7037 892.5,-486.7037 892.5,-464.7037 793.5,-464.7037"/>
<text text-anchor="start" x="796.5" y="-472.4037" font-family="Helvetica,sans-Serif" font-size="11.00" fill="#000000">text[2147483647]</text>
<polygon fill="none" stroke="#000000" points="655.5,-442.7037 655.5,-464.7037 793.5,-464.7037 793.5,-442.7037 655.5,-442.7037"/>
<image xlink:href="../../images/foreignKeys.png" width="11px" height="12px" preserveAspectRatio="xMinYMin meet" x="660.5" y="-459.704"/>
<text text-anchor="start" x="675.5" y="-449.8037" font-family="Helvetica,sans-Serif" font-size="11.00" fill="#000000">granted_by</text>
<polygon fill="none" stroke="#000000" points="793.5,-442.7037 793.5,-464.7037 892.5,-464.7037 892.5,-442.7037 793.5,-442.7037"/>
<text text-anchor="start" x="796.5" y="-450.4037" font-family="Helvetica,sans-Serif" font-size="11.00" fill="#000000">uuid[2147483647]</text>
<polygon fill="none" stroke="#000000" points="655.5,-420.7037 655.5,-442.7037 793.5,-442.7037 793.5,-420.7037 655.5,-420.7037"/>
<text text-anchor="start" x="675.5" y="-427.8037" font-family="Helvetica,sans-Serif" font-size="11.00" fill="#000000">granted_at</text>
<polygon fill="none" stroke="#000000" points="793.5,-420.7037 793.5,-442.7037 892.5,-442.7037 892.5,-420.7037 793.5,-420.7037"/>
<text text-anchor="start" x="796.5" y="-428.4037" font-family="Helvetica,sans-Serif" font-size="11.00" fill="#000000">timestamptz[35,6]</text>
<polygon fill="none" stroke="#000000" points="655.5,-398.7037 655.5,-420.7037 793.5,-420.7037 793.5,-398.7037 655.5,-398.7037"/>
<text text-anchor="start" x="675.5" y="-405.8037" font-family="Helvetica,sans-Serif" font-size="11.00" fill="#000000">expires_at</text>
<polygon fill="none" stroke="#000000" points="793.5,-398.7037 793.5,-420.7037 892.5,-420.7037 892.5,-398.7037 793.5,-398.7037"/>
<text text-anchor="start" x="796.5" y="-406.4037" font-family="Helvetica,sans-Serif" font-size="11.00" fill="#000000">timestamptz[35,6]</text>
<polygon fill="none" stroke="#000000" points="655.5,-376.7037 655.5,-398.7037 793.5,-398.7037 793.5,-376.7037 655.5,-376.7037"/>
<text text-anchor="start" x="675.5" y="-383.8037" font-family="Helvetica,sans-Serif" font-size="11.00" fill="#000000">conditions</text>
<polygon fill="none" stroke="#000000" points="793.5,-376.7037 793.5,-398.7037 892.5,-398.7037 892.5,-376.7037 793.5,-376.7037"/>
<text text-anchor="start" x="796.2258" y="-384.4037" font-family="Helvetica,sans-Serif" font-size="11.00" fill="#000000">jsonb[2147483647]</text>
<polygon fill="none" stroke="#000000" points="655.5,-354.7037 655.5,-376.7037 793.5,-376.7037 793.5,-354.7037 655.5,-354.7037"/>
<text text-anchor="start" x="675.5" y="-361.8037" font-family="Helvetica,sans-Serif" font-size="11.00" fill="#000000">is_active</text>
<polygon fill="none" stroke="#000000" points="793.5,-354.7037 793.5,-376.7037 892.5,-376.7037 892.5,-354.7037 793.5,-354.7037"/>
<text text-anchor="start" x="796.5" y="-362.4037" font-family="Helvetica,sans-Serif" font-size="11.00" fill="#000000">bool[1]</text>
<polygon fill="#ffffff" stroke="transparent" points="655.5,-335.7037 655.5,-354.7037 728.5,-354.7037 728.5,-335.7037 655.5,-335.7037"/>
<polygon fill="none" stroke="#000000" points="655.5,-335.7037 655.5,-354.7037 728.5,-354.7037 728.5,-335.7037 655.5,-335.7037"/>
<text text-anchor="start" x="658.5" y="-341.8037" font-family="Helvetica,sans-Serif" font-size="11.00" fill="#000000">&lt; 5</text>
<polygon fill="#ffffff" stroke="transparent" points="728.5,-335.7037 728.5,-354.7037 793.5,-354.7037 793.5,-335.7037 728.5,-335.7037"/>
<polygon fill="none" stroke="#000000" points="728.5,-335.7037 728.5,-354.7037 793.5,-354.7037 793.5,-335.7037 728.5,-335.7037"/>
<text text-anchor="start" x="784.3862" y="-341.8037" font-family="Helvetica,sans-Serif" font-size="11.00" fill="#000000"> &#160;</text>
<polygon fill="#ffffff" stroke="transparent" points="793.5,-335.7037 793.5,-354.7037 892.5,-354.7037 892.5,-335.7037 793.5,-335.7037"/>
<polygon fill="none" stroke="#000000" points="793.5,-335.7037 793.5,-354.7037 892.5,-354.7037 892.5,-335.7037 793.5,-335.7037"/>
<text text-anchor="start" x="873.9053" y="-341.8037" font-family="Helvetica,sans-Serif" font-size="11.00" fill="#000000">0 &gt;</text>
<polygon fill="none" stroke="#000000" stroke-width="2" points="654,-334.7037 654,-642.7037 893,-642.7037 893,-334.7037 654,-334.7037"/>
</a>
</g>
</g>
<!-- user_permissions&#45;&gt;entities -->
<g id="edge3" class="edge">
<title>user_permissions:w&#45;&gt;entities:e</title>
<path fill="none" stroke="#000000" d="M641.3365,-516.4594C570.599,-479.7155 680.8319,-142.0662 612,-79.7037 543.8211,-17.9328 475.2774,-20.3313 405,-79.7037 363.3346,-114.9038 418.5441,-321.7037 364,-321.7037"/>
<polygon fill="#000000" stroke="#000000" points="647.702,-517.9174 654.6962,-523.2128 651.601,-518.8105 655.5,-519.7037 655.5,-519.7037 655.5,-519.7037 651.601,-518.8105 656.3038,-516.1946 647.702,-517.9174 647.702,-517.9174"/>
<ellipse fill="none" stroke="#000000" cx="644.5827" cy="-517.2029" rx="3.2" ry="3.2"/>
</g>
<!-- user_permissions&#45;&gt;tenants -->
<g id="edge6" class="edge">
<title>user_permissions:w&#45;&gt;tenants:e</title>
<path fill="none" stroke="#000000" d="M640.8427,-585.9215C452.1205,-591.5342 363.3608,-702.7831 208,-586.7037 157.1357,-548.6999 230.9938,-449.7037 167.5,-449.7037"/>
<polygon fill="#000000" stroke="#000000" points="647.5009,-585.8226 655.5535,-589.3033 651.5004,-585.7631 655.5,-585.7037 655.5,-585.7037 655.5,-585.7037 651.5004,-585.7631 655.4465,-582.1041 647.5009,-585.8226 647.5009,-585.8226"/>
<ellipse fill="none" stroke="#000000" cx="644.3012" cy="-585.8701" rx="3.2" ry="3.2"/>
</g>
<!-- user_permissions&#45;&gt;permissions -->
<g id="edge5" class="edge">
<title>user_permissions:w&#45;&gt;permissions:e</title>
<path fill="none" stroke="#000000" d="M640.8132,-541.7037C520.616,-541.7037 485.1864,-541.7037 358,-541.7037"/>
<polygon fill="#000000" stroke="#000000" points="647.5,-541.7037 655.5,-545.3037 651.5,-541.7037 655.5,-541.7037 655.5,-541.7037 655.5,-541.7037 651.5,-541.7037 655.5,-538.1037 647.5,-541.7037 647.5,-541.7037"/>
<ellipse fill="none" stroke="#000000" cx="644.3" cy="-541.7038" rx="3.2" ry="3.2"/>
</g>
<!-- users -->
<g id="node5" class="node">
<title>users</title>
<g id="a_node5"><a xlink:href="../../tables/users.html" xlink:title="users" target="_top">
<polygon fill="#ffffff" stroke="transparent" points="413,-90.2037 413,-503.2037 604,-503.2037 604,-90.2037 413,-90.2037"/>
<polygon fill="#f5f5f5" stroke="transparent" points="413.5,-479.7037 413.5,-502.7037 604.5,-502.7037 604.5,-479.7037 413.5,-479.7037"/>
<polygon fill="none" stroke="#000000" points="413.5,-479.7037 413.5,-502.7037 604.5,-502.7037 604.5,-479.7037 413.5,-479.7037"/>
<text text-anchor="start" x="418.5" y="-488.3037" font-family="Helvetica,sans-Serif" font-weight="bold" font-size="11.00" fill="#000000">users</text>
<text text-anchor="start" x="569.5437" y="-487.8037" font-family="Helvetica,sans-Serif" font-size="11.00" fill="#000000">[table]</text>
<polygon fill="none" stroke="#000000" points="413.5,-457.7037 413.5,-479.7037 604.5,-479.7037 604.5,-457.7037 413.5,-457.7037"/>
<image xlink:href="../../images/primaryKeys.png" width="11px" height="12px" preserveAspectRatio="xMinYMin meet" x="418.5" y="-474.704"/>
<text text-anchor="start" x="433.5" y="-464.8037" font-family="Helvetica,sans-Serif" font-size="11.00" fill="#000000">id</text>
<polygon fill="#ffffff" stroke="transparent" points="413.5,-435.7037 413.5,-457.7037 604.5,-457.7037 604.5,-435.7037 413.5,-435.7037"/>
<polygon fill="none" stroke="#000000" points="413.5,-435.7037 413.5,-457.7037 604.5,-457.7037 604.5,-435.7037 413.5,-435.7037"/>
<image xlink:href="../../images/foreignKeys.png" width="11px" height="12px" preserveAspectRatio="xMinYMin meet" x="418.5" y="-452.704"/>
<text text-anchor="start" x="433.5" y="-442.8037" font-family="Helvetica,sans-Serif" font-size="11.00" fill="#000000">tenant_id</text>
<polygon fill="#ffffff" stroke="transparent" points="413.5,-413.7037 413.5,-435.7037 604.5,-435.7037 604.5,-413.7037 413.5,-413.7037"/>
<polygon fill="none" stroke="#000000" points="413.5,-413.7037 413.5,-435.7037 604.5,-435.7037 604.5,-413.7037 413.5,-413.7037"/>
<image xlink:href="../../images/foreignKeys.png" width="11px" height="12px" preserveAspectRatio="xMinYMin meet" x="418.5" y="-430.704"/>
<text text-anchor="start" x="433.5" y="-420.8037" font-family="Helvetica,sans-Serif" font-size="11.00" fill="#000000">entity_id</text>
<polygon fill="#ffffff" stroke="transparent" points="413.5,-391.7037 413.5,-413.7037 604.5,-413.7037 604.5,-391.7037 413.5,-391.7037"/>
<polygon fill="none" stroke="#000000" points="413.5,-391.7037 413.5,-413.7037 604.5,-413.7037 604.5,-391.7037 413.5,-391.7037"/>
<image xlink:href="../../images/foreignKeys.png" width="11px" height="12px" preserveAspectRatio="xMinYMin meet" x="418.5" y="-408.704"/>
<text text-anchor="start" x="433.5" y="-398.8037" font-family="Helvetica,sans-Serif" font-size="11.00" fill="#000000">person_id</text>
<polygon fill="#ffffff" stroke="transparent" points="413.5,-369.7037 413.5,-391.7037 604.5,-391.7037 604.5,-369.7037 413.5,-369.7037"/>
<polygon fill="none" stroke="#000000" points="413.5,-369.7037 413.5,-391.7037 604.5,-391.7037 604.5,-369.7037 413.5,-369.7037"/>
<image xlink:href="../../images/foreignKeys.png" width="11px" height="12px" preserveAspectRatio="xMinYMin meet" x="418.5" y="-386.704"/>
<text text-anchor="start" x="433.5" y="-376.8037" font-family="Helvetica,sans-Serif" font-size="11.00" fill="#000000">employee_id</text>
<polygon fill="#ffffff" stroke="transparent" points="413.5,-347.7037 413.5,-369.7037 604.5,-369.7037 604.5,-347.7037 413.5,-347.7037"/>
<polygon fill="none" stroke="#000000" points="413.5,-347.7037 413.5,-369.7037 604.5,-369.7037 604.5,-347.7037 413.5,-347.7037"/>
<text text-anchor="start" x="433.5" y="-354.8037" font-family="Helvetica,sans-Serif" font-size="11.00" fill="#000000">email</text>
<polygon fill="#ffffff" stroke="transparent" points="413.5,-325.7037 413.5,-347.7037 604.5,-347.7037 604.5,-325.7037 413.5,-325.7037"/>
<polygon fill="none" stroke="#000000" points="413.5,-325.7037 413.5,-347.7037 604.5,-347.7037 604.5,-325.7037 413.5,-325.7037"/>
<text text-anchor="start" x="433.5" y="-332.8037" font-family="Helvetica,sans-Serif" font-size="11.00" fill="#000000">username</text>
<polygon fill="#ffffff" stroke="transparent" points="413.5,-303.7037 413.5,-325.7037 604.5,-325.7037 604.5,-303.7037 413.5,-303.7037"/>
<polygon fill="none" stroke="#000000" points="413.5,-303.7037 413.5,-325.7037 604.5,-325.7037 604.5,-303.7037 413.5,-303.7037"/>
<text text-anchor="start" x="433.5" y="-310.8037" font-family="Helvetica,sans-Serif" font-size="11.00" fill="#000000">user_type</text>
<polygon fill="#ffffff" stroke="transparent" points="413.5,-281.7037 413.5,-303.7037 604.5,-303.7037 604.5,-281.7037 413.5,-281.7037"/>
<polygon fill="none" stroke="#000000" points="413.5,-281.7037 413.5,-303.7037 604.5,-303.7037 604.5,-281.7037 413.5,-281.7037"/>
<text text-anchor="start" x="433.5" y="-288.8037" font-family="Helvetica,sans-Serif" font-size="11.00" fill="#000000">account_status</text>
<polygon fill="#ffffff" stroke="transparent" points="413.5,-259.7037 413.5,-281.7037 604.5,-281.7037 604.5,-259.7037 413.5,-259.7037"/>
<polygon fill="none" stroke="#000000" points="413.5,-259.7037 413.5,-281.7037 604.5,-281.7037 604.5,-259.7037 413.5,-259.7037"/>
<text text-anchor="start" x="433.5" y="-266.8037" font-family="Helvetica,sans-Serif" font-size="11.00" fill="#000000">is_active</text>
<polygon fill="#ffffff" stroke="transparent" points="413.5,-237.7037 413.5,-259.7037 604.5,-259.7037 604.5,-237.7037 413.5,-237.7037"/>
<polygon fill="none" stroke="#000000" points="413.5,-237.7037 413.5,-259.7037 604.5,-259.7037 604.5,-237.7037 413.5,-237.7037"/>
<text text-anchor="start" x="433.5" y="-244.8037" font-family="Helvetica,sans-Serif" font-size="11.00" fill="#000000">failed_login_attempts</text>
<polygon fill="#ffffff" stroke="transparent" points="413.5,-215.7037 413.5,-237.7037 604.5,-237.7037 604.5,-215.7037 413.5,-215.7037"/>
<polygon fill="none" stroke="#000000" points="413.5,-215.7037 413.5,-237.7037 604.5,-237.7037 604.5,-215.7037 413.5,-215.7037"/>
<text text-anchor="start" x="433.5" y="-222.8037" font-family="Helvetica,sans-Serif" font-size="11.00" fill="#000000">lockout_until</text>
<polygon fill="#ffffff" stroke="transparent" points="413.5,-193.7037 413.5,-215.7037 604.5,-215.7037 604.5,-193.7037 413.5,-193.7037"/>
<polygon fill="none" stroke="#000000" points="413.5,-193.7037 413.5,-215.7037 604.5,-215.7037 604.5,-193.7037 413.5,-193.7037"/>
<text text-anchor="start" x="433.5" y="-200.8037" font-family="Helvetica,sans-Serif" font-size="11.00" fill="#000000">mfa_enabled</text>
<polygon fill="#ffffff" stroke="transparent" points="413.5,-171.7037 413.5,-193.7037 604.5,-193.7037 604.5,-171.7037 413.5,-171.7037"/>
<polygon fill="none" stroke="#000000" points="413.5,-171.7037 413.5,-193.7037 604.5,-193.7037 604.5,-171.7037 413.5,-171.7037"/>
<text text-anchor="start" x="433.5" y="-178.8037" font-family="Helvetica,sans-Serif" font-size="11.00" fill="#000000">user_attributes</text>
<polygon fill="#ffffff" stroke="transparent" points="413.5,-149.7037 413.5,-171.7037 604.5,-171.7037 604.5,-149.7037 413.5,-149.7037"/>
<polygon fill="none" stroke="#000000" points="413.5,-149.7037 413.5,-171.7037 604.5,-171.7037 604.5,-149.7037 413.5,-149.7037"/>
<text text-anchor="start" x="433.5" y="-156.8037" font-family="Helvetica,sans-Serif" font-size="11.00" fill="#000000">settings</text>
<polygon fill="#ffffff" stroke="transparent" points="413.5,-127.7037 413.5,-149.7037 604.5,-149.7037 604.5,-127.7037 413.5,-127.7037"/>
<polygon fill="none" stroke="#000000" points="413.5,-127.7037 413.5,-149.7037 604.5,-149.7037 604.5,-127.7037 413.5,-127.7037"/>
<text text-anchor="start" x="433.5" y="-134.8037" font-family="Helvetica,sans-Serif" font-size="11.00" fill="#000000">deleted_at</text>
<polygon fill="none" stroke="#000000" points="413.5,-108.7037 413.5,-127.7037 604.5,-127.7037 604.5,-108.7037 413.5,-108.7037"/>
<text text-anchor="start" x="416.5" y="-114.8037" font-family="Helvetica,sans-Serif" font-size="11.00" fill="#000000">...</text>
<polygon fill="#ffffff" stroke="transparent" points="413.5,-89.7037 413.5,-108.7037 499.5,-108.7037 499.5,-89.7037 413.5,-89.7037"/>
<polygon fill="none" stroke="#000000" points="413.5,-89.7037 413.5,-108.7037 499.5,-108.7037 499.5,-89.7037 413.5,-89.7037"/>
<text text-anchor="start" x="416.5" y="-95.8037" font-family="Helvetica,sans-Serif" font-size="11.00" fill="#000000">&lt; 4</text>
<polygon fill="#ffffff" stroke="transparent" points="499.5,-89.7037 499.5,-108.7037 544.5,-108.7037 544.5,-89.7037 499.5,-89.7037"/>
<polygon fill="none" stroke="#000000" points="499.5,-89.7037 499.5,-108.7037 544.5,-108.7037 544.5,-89.7037 499.5,-89.7037"/>
<text text-anchor="start" x="535.3862" y="-95.8037" font-family="Helvetica,sans-Serif" font-size="11.00" fill="#000000"> &#160;</text>
<polygon fill="#ffffff" stroke="transparent" points="544.5,-89.7037 544.5,-108.7037 604.5,-108.7037 604.5,-89.7037 544.5,-89.7037"/>
<polygon fill="none" stroke="#000000" points="544.5,-89.7037 544.5,-108.7037 604.5,-108.7037 604.5,-89.7037 544.5,-89.7037"/>
<text text-anchor="start" x="579.7904" y="-95.8037" font-family="Helvetica,sans-Serif" font-size="11.00" fill="#000000">29 &gt;</text>
</a>
</g>
</g>
<!-- user_permissions&#45;&gt;users -->
<g id="edge4" class="edge">
<title>user_permissions:w&#45;&gt;users:e</title>
<path fill="none" stroke="#000000" d="M641.2671,-455.917C628.8925,-460.0895 622.4046,-468.7037 604.5,-468.7037"/>
<polygon fill="#000000" stroke="#000000" points="647.595,-454.933 656.0532,-457.2609 651.5475,-454.3183 655.5,-453.7037 655.5,-453.7037 655.5,-453.7037 651.5475,-454.3183 654.9468,-450.1464 647.595,-454.933 647.595,-454.933"/>
<ellipse fill="none" stroke="#000000" cx="644.433" cy="-455.4247" rx="3.2" ry="3.2"/>
</g>
<!-- user_permissions&#45;&gt;users -->
<g id="edge7" class="edge">
<title>user_permissions:w&#45;&gt;users:e</title>
<path fill="none" stroke="#000000" d="M641.5154,-559.6216C617.3397,-541.438 646.4315,-468.7037 604.5,-468.7037"/>
<polygon fill="#000000" stroke="#000000" points="647.8205,-561.462 654.4913,-567.1595 651.6602,-562.5829 655.5,-563.7037 655.5,-563.7037 655.5,-563.7037 651.6602,-562.5829 656.5087,-560.2479 647.8205,-561.462 647.8205,-561.462"/>
<ellipse fill="none" stroke="#000000" cx="644.7487" cy="-560.5654" rx="3.2" ry="3.2"/>
</g>
<!-- users&#45;&gt;entities -->
<g id="edge8" class="edge">
<title>users:w&#45;&gt;entities:e</title>
<path fill="none" stroke="#000000" d="M399.5512,-420.7917C373.5037,-401.9775 408.8379,-321.7037 364,-321.7037"/>
<polygon fill="#000000" stroke="#000000" points="405.7972,-422.5434 412.5279,-428.1699 409.6486,-423.6235 413.5,-424.7037 413.5,-424.7037 413.5,-424.7037 409.6486,-423.6235 414.4721,-421.2374 405.7972,-422.5434 405.7972,-422.5434"/>
<ellipse fill="none" stroke="#000000" cx="402.7161" cy="-421.6793" rx="3.2" ry="3.2"/>
</g>
<!-- users&#45;&gt;tenants -->
<g id="edge9" class="edge">
<title>users:w&#45;&gt;tenants:e</title>
<path fill="none" stroke="#000000" d="M399.5557,-441.7658C388.3887,-430.8253 392.8149,-404.7229 372,-394.7037 306.3235,-363.0905 273.05,-361.8207 208,-394.7037 180.908,-408.3987 197.8567,-449.7037 167.5,-449.7037"/>
<polygon fill="#000000" stroke="#000000" points="405.9589,-444.0332 412.2983,-450.0972 409.7294,-445.3684 413.5,-446.7037 413.5,-446.7037 413.5,-446.7037 409.7294,-445.3684 414.7017,-443.3102 405.9589,-444.0332 405.9589,-444.0332"/>
<ellipse fill="none" stroke="#000000" cx="402.9424" cy="-442.965" rx="3.2" ry="3.2"/>
</g>
</g>
</svg>
