<?xml version="1.0" encoding="UTF-8" standalone="no"?>
<!DOCTYPE svg PUBLIC "-//W3C//DTD SVG 1.1//EN"
 "http://www.w3.org/Graphics/SVG/1.1/DTD/svg11.dtd">
<!-- Generated by graphviz version 2.40.1 (20161225.0304)
 -->
<!-- Title: oneDegreeRelationshipsDiagram Pages: 1 -->
<svg width="314pt" height="627pt"
 viewBox="0.00 0.00 314.00 627.20" xmlns="http://www.w3.org/2000/svg" xmlns:xlink="http://www.w3.org/1999/xlink">
<g id="graph0" class="graph" transform="scale(1 1) rotate(0) translate(4 623.2)">
<title>oneDegreeRelationshipsDiagram</title>
<polygon fill="#ffffff" stroke="transparent" points="-4,4 -4,-623.2 310,-623.2 310,4 -4,4"/>
<text text-anchor="middle" x="72.4936" y="-7.3" font-family="Helvetica,sans-Serif" font-size="11.00" fill="#000000">Generated by SchemaSpy</text>
<!-- v_user_complete_view -->
<g id="node1" class="node">
<title>v_user_complete_view</title>
<g id="a_node1"><a xlink:href="../../tables/v_user_complete_view.html" xlink:title="v_user_complete_view" target="_top">
<polygon fill="#ffffff" stroke="transparent" points="8,-38.2 8,-615.2 298,-615.2 298,-38.2 8,-38.2"/>
<polygon fill="#f5f5f5" stroke="transparent" points="10,-589.7 10,-612.7 296,-612.7 296,-589.7 10,-589.7"/>
<polygon fill="none" stroke="#000000" points="10,-589.7 10,-612.7 296,-612.7 296,-589.7 10,-589.7"/>
<text text-anchor="start" x="15" y="-598.3" font-family="Helvetica,sans-Serif" font-weight="bold" font-size="11.00" fill="#000000">v_user_complete_view</text>
<text text-anchor="start" x="262.8895" y="-597.8" font-family="Helvetica,sans-Serif" font-size="11.00" fill="#000000">[view]</text>
<polygon fill="none" stroke="#000000" points="10,-567.7 10,-589.7 180,-589.7 180,-567.7 10,-567.7"/>
<text text-anchor="start" x="30" y="-574.8" font-family="Helvetica,sans-Serif" font-size="11.00" fill="#000000">user_id</text>
<polygon fill="none" stroke="#000000" points="180,-567.7 180,-589.7 296,-589.7 296,-567.7 180,-567.7"/>
<text text-anchor="start" x="183" y="-575.4" font-family="Helvetica,sans-Serif" font-size="11.00" fill="#000000">uuid[2147483647]</text>
<polygon fill="none" stroke="#000000" points="10,-545.7 10,-567.7 180,-567.7 180,-545.7 10,-545.7"/>
<text text-anchor="start" x="30" y="-552.8" font-family="Helvetica,sans-Serif" font-size="11.00" fill="#000000">tenant_id</text>
<polygon fill="none" stroke="#000000" points="180,-545.7 180,-567.7 296,-567.7 296,-545.7 180,-545.7"/>
<text text-anchor="start" x="183" y="-553.4" font-family="Helvetica,sans-Serif" font-size="11.00" fill="#000000">uuid[2147483647]</text>
<polygon fill="none" stroke="#000000" points="10,-523.7 10,-545.7 180,-545.7 180,-523.7 10,-523.7"/>
<text text-anchor="start" x="30" y="-530.8" font-family="Helvetica,sans-Serif" font-size="11.00" fill="#000000">entity_id</text>
<polygon fill="none" stroke="#000000" points="180,-523.7 180,-545.7 296,-545.7 296,-523.7 180,-523.7"/>
<text text-anchor="start" x="183" y="-531.4" font-family="Helvetica,sans-Serif" font-size="11.00" fill="#000000">uuid[2147483647]</text>
<polygon fill="none" stroke="#000000" points="10,-501.7 10,-523.7 180,-523.7 180,-501.7 10,-501.7"/>
<text text-anchor="start" x="30" y="-508.8" font-family="Helvetica,sans-Serif" font-size="11.00" fill="#000000">username</text>
<polygon fill="none" stroke="#000000" points="180,-501.7 180,-523.7 296,-523.7 296,-501.7 180,-501.7"/>
<text text-anchor="start" x="183" y="-509.4" font-family="Helvetica,sans-Serif" font-size="11.00" fill="#000000">varchar[100]</text>
<polygon fill="none" stroke="#000000" points="10,-479.7 10,-501.7 180,-501.7 180,-479.7 10,-479.7"/>
<text text-anchor="start" x="30" y="-486.8" font-family="Helvetica,sans-Serif" font-size="11.00" fill="#000000">email</text>
<polygon fill="none" stroke="#000000" points="180,-479.7 180,-501.7 296,-501.7 296,-479.7 180,-479.7"/>
<text text-anchor="start" x="183" y="-487.4" font-family="Helvetica,sans-Serif" font-size="11.00" fill="#000000">varchar[255]</text>
<polygon fill="none" stroke="#000000" points="10,-457.7 10,-479.7 180,-479.7 180,-457.7 10,-457.7"/>
<text text-anchor="start" x="30" y="-464.8" font-family="Helvetica,sans-Serif" font-size="11.00" fill="#000000">user_type</text>
<polygon fill="none" stroke="#000000" points="180,-457.7 180,-479.7 296,-479.7 296,-457.7 180,-457.7"/>
<text text-anchor="start" x="183" y="-465.4" font-family="Helvetica,sans-Serif" font-size="11.00" fill="#000000">varchar[20]</text>
<polygon fill="none" stroke="#000000" points="10,-435.7 10,-457.7 180,-457.7 180,-435.7 10,-435.7"/>
<text text-anchor="start" x="30" y="-442.8" font-family="Helvetica,sans-Serif" font-size="11.00" fill="#000000">account_status</text>
<polygon fill="none" stroke="#000000" points="180,-435.7 180,-457.7 296,-457.7 296,-435.7 180,-435.7"/>
<text text-anchor="start" x="183" y="-443.4" font-family="Helvetica,sans-Serif" font-size="11.00" fill="#000000">varchar[20]</text>
<polygon fill="none" stroke="#000000" points="10,-413.7 10,-435.7 180,-435.7 180,-413.7 10,-413.7"/>
<text text-anchor="start" x="30" y="-420.8" font-family="Helvetica,sans-Serif" font-size="11.00" fill="#000000">user_active</text>
<polygon fill="none" stroke="#000000" points="180,-413.7 180,-435.7 296,-435.7 296,-413.7 180,-413.7"/>
<text text-anchor="start" x="183" y="-421.4" font-family="Helvetica,sans-Serif" font-size="11.00" fill="#000000">bool[1]</text>
<polygon fill="none" stroke="#000000" points="10,-391.7 10,-413.7 180,-413.7 180,-391.7 10,-391.7"/>
<text text-anchor="start" x="30" y="-398.8" font-family="Helvetica,sans-Serif" font-size="11.00" fill="#000000">last_login_at</text>
<polygon fill="none" stroke="#000000" points="180,-391.7 180,-413.7 296,-413.7 296,-391.7 180,-391.7"/>
<text text-anchor="start" x="183" y="-399.4" font-family="Helvetica,sans-Serif" font-size="11.00" fill="#000000">timestamptz[35,6]</text>
<polygon fill="none" stroke="#000000" points="10,-369.7 10,-391.7 180,-391.7 180,-369.7 10,-369.7"/>
<text text-anchor="start" x="30" y="-376.8" font-family="Helvetica,sans-Serif" font-size="11.00" fill="#000000">mfa_enabled</text>
<polygon fill="none" stroke="#000000" points="180,-369.7 180,-391.7 296,-391.7 296,-369.7 180,-369.7"/>
<text text-anchor="start" x="183" y="-377.4" font-family="Helvetica,sans-Serif" font-size="11.00" fill="#000000">bool[1]</text>
<polygon fill="none" stroke="#000000" points="10,-347.7 10,-369.7 180,-369.7 180,-347.7 10,-347.7"/>
<text text-anchor="start" x="30" y="-354.8" font-family="Helvetica,sans-Serif" font-size="11.00" fill="#000000">person_id</text>
<polygon fill="none" stroke="#000000" points="180,-347.7 180,-369.7 296,-369.7 296,-347.7 180,-347.7"/>
<text text-anchor="start" x="183" y="-355.4" font-family="Helvetica,sans-Serif" font-size="11.00" fill="#000000">uuid[2147483647]</text>
<polygon fill="none" stroke="#000000" points="10,-325.7 10,-347.7 180,-347.7 180,-325.7 10,-325.7"/>
<text text-anchor="start" x="30" y="-332.8" font-family="Helvetica,sans-Serif" font-size="11.00" fill="#000000">first_name</text>
<polygon fill="none" stroke="#000000" points="180,-325.7 180,-347.7 296,-347.7 296,-325.7 180,-325.7"/>
<text text-anchor="start" x="183" y="-333.4" font-family="Helvetica,sans-Serif" font-size="11.00" fill="#000000">varchar[100]</text>
<polygon fill="none" stroke="#000000" points="10,-303.7 10,-325.7 180,-325.7 180,-303.7 10,-303.7"/>
<text text-anchor="start" x="30" y="-310.8" font-family="Helvetica,sans-Serif" font-size="11.00" fill="#000000">last_name</text>
<polygon fill="none" stroke="#000000" points="180,-303.7 180,-325.7 296,-325.7 296,-303.7 180,-303.7"/>
<text text-anchor="start" x="183" y="-311.4" font-family="Helvetica,sans-Serif" font-size="11.00" fill="#000000">varchar[100]</text>
<polygon fill="none" stroke="#000000" points="10,-281.7 10,-303.7 180,-303.7 180,-281.7 10,-281.7"/>
<text text-anchor="start" x="30" y="-288.8" font-family="Helvetica,sans-Serif" font-size="11.00" fill="#000000">middle_name</text>
<polygon fill="none" stroke="#000000" points="180,-281.7 180,-303.7 296,-303.7 296,-281.7 180,-281.7"/>
<text text-anchor="start" x="183" y="-289.4" font-family="Helvetica,sans-Serif" font-size="11.00" fill="#000000">varchar[100]</text>
<polygon fill="none" stroke="#000000" points="10,-259.7 10,-281.7 180,-281.7 180,-259.7 10,-259.7"/>
<text text-anchor="start" x="30" y="-266.8" font-family="Helvetica,sans-Serif" font-size="11.00" fill="#000000">person_type</text>
<polygon fill="none" stroke="#000000" points="180,-259.7 180,-281.7 296,-281.7 296,-259.7 180,-259.7"/>
<text text-anchor="start" x="183" y="-267.4" font-family="Helvetica,sans-Serif" font-size="11.00" fill="#000000">varchar[20]</text>
<polygon fill="none" stroke="#000000" points="10,-237.7 10,-259.7 180,-259.7 180,-237.7 10,-237.7"/>
<text text-anchor="start" x="30" y="-244.8" font-family="Helvetica,sans-Serif" font-size="11.00" fill="#000000">employee_id</text>
<polygon fill="none" stroke="#000000" points="180,-237.7 180,-259.7 296,-259.7 296,-237.7 180,-237.7"/>
<text text-anchor="start" x="183" y="-245.4" font-family="Helvetica,sans-Serif" font-size="11.00" fill="#000000">uuid[2147483647]</text>
<polygon fill="none" stroke="#000000" points="10,-215.7 10,-237.7 180,-237.7 180,-215.7 10,-215.7"/>
<text text-anchor="start" x="30" y="-222.8" font-family="Helvetica,sans-Serif" font-size="11.00" fill="#000000">employee_number</text>
<polygon fill="none" stroke="#000000" points="180,-215.7 180,-237.7 296,-237.7 296,-215.7 180,-215.7"/>
<text text-anchor="start" x="183" y="-223.4" font-family="Helvetica,sans-Serif" font-size="11.00" fill="#000000">varchar[50]</text>
<polygon fill="none" stroke="#000000" points="10,-193.7 10,-215.7 180,-215.7 180,-193.7 10,-193.7"/>
<text text-anchor="start" x="30" y="-200.8" font-family="Helvetica,sans-Serif" font-size="11.00" fill="#000000">position_title</text>
<polygon fill="none" stroke="#000000" points="180,-193.7 180,-215.7 296,-215.7 296,-193.7 180,-193.7"/>
<text text-anchor="start" x="183" y="-201.4" font-family="Helvetica,sans-Serif" font-size="11.00" fill="#000000">varchar[100]</text>
<polygon fill="none" stroke="#000000" points="10,-171.7 10,-193.7 180,-193.7 180,-171.7 10,-171.7"/>
<text text-anchor="start" x="30" y="-178.8" font-family="Helvetica,sans-Serif" font-size="11.00" fill="#000000">department_id</text>
<polygon fill="none" stroke="#000000" points="180,-171.7 180,-193.7 296,-193.7 296,-171.7 180,-171.7"/>
<text text-anchor="start" x="183" y="-179.4" font-family="Helvetica,sans-Serif" font-size="11.00" fill="#000000">uuid[2147483647]</text>
<polygon fill="none" stroke="#000000" points="10,-149.7 10,-171.7 180,-171.7 180,-149.7 10,-149.7"/>
<text text-anchor="start" x="30" y="-156.8" font-family="Helvetica,sans-Serif" font-size="11.00" fill="#000000">employment_status</text>
<polygon fill="none" stroke="#000000" points="180,-149.7 180,-171.7 296,-171.7 296,-149.7 180,-149.7"/>
<text text-anchor="start" x="183" y="-157.4" font-family="Helvetica,sans-Serif" font-size="11.00" fill="#000000">varchar[20]</text>
<polygon fill="none" stroke="#000000" points="10,-127.7 10,-149.7 180,-149.7 180,-127.7 10,-127.7"/>
<text text-anchor="start" x="30" y="-134.8" font-family="Helvetica,sans-Serif" font-size="11.00" fill="#000000">security_level</text>
<polygon fill="none" stroke="#000000" points="180,-127.7 180,-149.7 296,-149.7 296,-127.7 180,-127.7"/>
<text text-anchor="start" x="183" y="-135.4" font-family="Helvetica,sans-Serif" font-size="11.00" fill="#000000">int4[10]</text>
<polygon fill="none" stroke="#000000" points="10,-105.7 10,-127.7 180,-127.7 180,-105.7 10,-105.7"/>
<text text-anchor="start" x="30" y="-112.8" font-family="Helvetica,sans-Serif" font-size="11.00" fill="#000000">combined_attributes</text>
<polygon fill="none" stroke="#000000" points="180,-105.7 180,-127.7 296,-127.7 296,-105.7 180,-105.7"/>
<text text-anchor="start" x="183" y="-113.4" font-family="Helvetica,sans-Serif" font-size="11.00" fill="#000000">jsonb[2147483647]</text>
<polygon fill="none" stroke="#000000" points="10,-83.7 10,-105.7 180,-105.7 180,-83.7 10,-83.7"/>
<text text-anchor="start" x="30" y="-90.8" font-family="Helvetica,sans-Serif" font-size="11.00" fill="#000000">role_names</text>
<polygon fill="none" stroke="#000000" points="180,-83.7 180,-105.7 296,-105.7 296,-83.7 180,-83.7"/>
<text text-anchor="start" x="182.9769" y="-91.4" font-family="Helvetica,sans-Serif" font-size="11.00" fill="#000000">_varchar[2147483647]</text>
<polygon fill="none" stroke="#000000" points="10,-61.7 10,-83.7 180,-83.7 180,-61.7 10,-61.7"/>
<text text-anchor="start" x="30" y="-68.8" font-family="Helvetica,sans-Serif" font-size="11.00" fill="#000000">role_ids</text>
<polygon fill="none" stroke="#000000" points="180,-61.7 180,-83.7 296,-83.7 296,-61.7 180,-61.7"/>
<text text-anchor="start" x="183" y="-69.4" font-family="Helvetica,sans-Serif" font-size="11.00" fill="#000000">_uuid[2147483647]</text>
<polygon fill="none" stroke="#000000" points="10,-39.7 10,-61.7 180,-61.7 180,-39.7 10,-39.7"/>
<text text-anchor="start" x="30" y="-46.8" font-family="Helvetica,sans-Serif" font-size="11.00" fill="#000000">active_role_count</text>
<polygon fill="none" stroke="#000000" points="180,-39.7 180,-61.7 296,-61.7 296,-39.7 180,-39.7"/>
<text text-anchor="start" x="183" y="-47.4" font-family="Helvetica,sans-Serif" font-size="11.00" fill="#000000">int8[19]</text>
<polygon fill="none" stroke="#000000" stroke-width="2" points="9,-39.2 9,-614.2 297,-614.2 297,-39.2 9,-39.2"/>
</a>
</g>
</g>
</g>
</svg>
